<?xml version="1.0" encoding="utf-8"?>
<!-- Generator: Adobe Illustrator 16.0.0, SVG Export Plug-In . SVG Version: 6.00 Build 0)  -->
<!DOCTYPE svg PUBLIC "-//W3C//DTD SVG 1.1//EN" "http://www.w3.org/Graphics/SVG/1.1/DTD/svg11.dtd">
<svg version="1.1" id="图层_1" xmlns="http://www.w3.org/2000/svg" xmlns:xlink="http://www.w3.org/1999/xlink" x="0px" y="0px"
	 width="770px" height="276.93px" viewBox="0 0 770 276.93" enable-background="new 0 0 770 276.93" xml:space="preserve">
<path opacity="0.2" fill="#040000" d="M116.822,100.438c-16.312,0-29.536,14.93-29.536,33.347h59.071
	C146.357,115.368,133.134,100.438,116.822,100.438z"/>
<path opacity="0.2" fill="#040000" d="M675.821,100.438c-16.313,0-29.535,14.93-29.535,33.347h59.07
	C705.356,115.368,692.134,100.438,675.821,100.438z"/>
<linearGradient id="SVGID_1_" gradientUnits="userSpaceOnUse" x1="396.4409" y1="100.4385" x2="396.4409" y2="176.4902">
	<stop  offset="0" style="stop-color:#FDFDFE"/>
	<stop  offset="1" style="stop-color:#B3D0E9"/>
</linearGradient>
<path fill="url(#SVGID_1_)" d="M298.331,100.438h-28.337H114.941c0,0,16.041,11.977,26.199,24.553
	c10.158,12.576,10.68,51.499,52.932,51.499c24.327,0,81.367-0.105,90.09-0.222c8.724,0.116,290.59,0.222,314.651,0.222
	c42.25,0,42.771-38.923,52.932-51.499c10.156-12.576,26.197-24.553,26.197-24.553H298.331z"/>
<g>
	<path fill="#727171" d="M445.778,164.231h-2.865l-0.83,2.597h-1.726l2.976-9.159h2.074l2.995,9.159h-1.795L445.778,164.231
		L445.778,164.231z M443.318,162.974h2.056l-1.03-3.375L443.318,162.974L443.318,162.974z M498.826,157.669h1.67v5.34
		c0,1.794,0.748,2.625,1.875,2.625c1.211,0,1.93-0.831,1.93-2.625v-5.34h1.672v5.232c0,2.826-1.455,4.077-3.656,4.077
		c-2.119,0-3.49-1.184-3.49-4.063V157.669L498.826,157.669z M492.324,165.634c1.629,0,2.541-1.497,2.541-3.412
		c0-1.726-0.857-3.357-2.527-3.357s-2.541,1.591-2.541,3.412C489.797,164.095,490.719,165.634,492.324,165.634L492.324,165.634z
		 M492.285,166.979c-2.611,0-4.24-1.986-4.24-4.663c0-2.799,1.779-4.796,4.361-4.796c2.664,0,4.24,2.025,4.24,4.633
		C496.646,165.226,494.785,166.979,492.285,166.979L492.285,166.979z M478.629,157.669h1.674v3.67h3.869v-3.67h1.674v9.159h-1.674
		v-4.037h-3.869v4.037h-1.674V157.669L478.629,157.669z M469.574,166.828v-0.925l4.686-6.808h-4.279v-1.427h6.44v0.979l-4.619,6.754
		h4.688v1.427H469.574L469.574,166.828z M467.717,161.774v4.634c-0.584,0.217-1.725,0.516-2.935,0.516
		c-1.547,0-2.73-0.395-3.601-1.224c-0.815-0.773-1.276-1.986-1.276-3.369c0.014-2.91,2.065-4.757,5.095-4.757
		c1.129,0,2.013,0.23,2.433,0.421l-0.367,1.358c-0.502-0.23-1.114-0.394-2.078-0.394c-1.958,0-3.33,1.155-3.33,3.289
		c0,2.093,1.276,3.314,3.18,3.314c0.611,0,1.045-0.08,1.264-0.176v-2.297h-1.618v-1.316H467.717L467.717,161.774z M431.148,157.669
		h1.67v3.67h3.874v-3.67h1.67v9.159h-1.67v-4.037h-3.874v4.037h-1.67V157.669L431.148,157.669z M419.909,166.828v-9.159h5.3v1.373
		h-3.629v2.527h3.371v1.357h-3.371v3.901H419.909L419.909,166.828z M413.394,165.634c1.632,0,2.543-1.497,2.543-3.412
		c0-1.726-0.856-3.357-2.529-3.357c-1.67,0-2.541,1.591-2.541,3.412C410.868,164.095,411.792,165.634,413.394,165.634
		L413.394,165.634z M413.353,166.979c-2.609,0-4.238-1.986-4.238-4.663c0-2.799,1.78-4.796,4.362-4.796
		c2.664,0,4.24,2.025,4.24,4.633C417.717,165.226,415.855,166.979,413.353,166.979L413.353,166.979z M397.361,166.828v-9.159h1.658
		v4.213l3.109-4.213h2.052l-3.025,4.096l3.23,5.063h-1.958l-2.277-3.702l-1.133,1.542v2.16H397.361L397.361,166.828z
		 M382.76,164.231h-2.865l-0.832,2.597h-1.726l2.978-9.159h2.072l2.995,9.159h-1.793L382.76,164.231L382.76,164.231z
		 M380.299,162.974h2.056l-1.03-3.375L380.299,162.974L380.299,162.974z M371.132,162.629v3.043h0.881
		c1.074,0,2.04-0.407,2.04-1.535c0-1.072-0.938-1.508-2.093-1.508H371.132L371.132,162.629z M371.132,158.837v2.584h0.855
		c1.169,0,1.808-0.546,1.808-1.319c0-0.869-0.653-1.265-1.714-1.265H371.132L371.132,158.837z M374.937,166.082
		c-0.653,0.557-1.726,0.842-3.412,0.842h-2.052V157.6h2.447h0.115c1.157,0.013,1.901,0.179,2.493,0.585
		c0.571,0.34,0.952,0.938,0.952,1.729c0,0.841-0.529,1.601-1.522,1.969c0.965,0.285,1.849,1.045,1.849,2.31
		C375.807,165.006,375.453,165.646,374.937,166.082L374.937,166.082z M393.124,157.669h1.55v9.159h-1.739l-3.982-6.68v6.68h-1.548
		v-9.159h1.916l3.807,6.413L393.124,157.669L393.124,157.669z M456.146,157.669h1.549v9.159h-1.741l-3.981-6.68v6.68h-1.549v-9.159
		h1.917l3.805,6.413V157.669L456.146,157.669z"/>
	<g>
		<defs>
			<path id="SVGID_2_" d="M345.593,135.813c-7.082,4.993-24.882,17.511-24.882,17.511l-24.889-17.511H345.593L345.593,135.813z"/>
		</defs>
		<clipPath id="SVGID_3_">
			<use xlink:href="#SVGID_2_"  overflow="visible"/>
		</clipPath>
		
			<rect x="285.296" y="134.925" transform="matrix(-0.9998 -0.0175 0.0175 -0.9998 638.7109 276.0013)" clip-path="url(#SVGID_3_)" fill="#0090D8" width="70.528" height="0.574"/>
		
			<rect x="285.287" y="135.469" transform="matrix(-0.9998 -0.0175 0.0175 -0.9998 638.6799 277.0933)" clip-path="url(#SVGID_3_)" fill="#008ED7" width="70.528" height="0.575"/>
		
			<rect x="285.278" y="136.015" transform="matrix(-0.9998 -0.0175 0.0175 -0.9998 638.6533 278.1805)" clip-path="url(#SVGID_3_)" fill="#008CD5" width="70.527" height="0.574"/>
		
			<rect x="285.267" y="136.56" transform="matrix(-0.9998 -0.0174 0.0174 -0.9998 638.6248 279.2656)" clip-path="url(#SVGID_3_)" fill="#008AD3" width="70.528" height="0.575"/>
		
			<rect x="285.257" y="137.105" transform="matrix(-0.9998 -0.0174 0.0174 -0.9998 638.5962 280.3562)" clip-path="url(#SVGID_3_)" fill="#0088D2" width="70.528" height="0.574"/>
		
			<rect x="285.248" y="137.649" transform="matrix(-0.9998 -0.0175 0.0175 -0.9998 638.5636 281.4547)" clip-path="url(#SVGID_3_)" fill="#0087D0" width="70.527" height="0.576"/>
		
			<rect x="285.238" y="138.194" transform="matrix(-0.9998 -0.0174 0.0174 -0.9998 638.5441 282.5247)" clip-path="url(#SVGID_3_)" fill="#0085CF" width="70.528" height="0.574"/>
		
			<rect x="285.23" y="138.74" transform="matrix(-0.9998 -0.0174 0.0174 -0.9998 638.5144 283.6198)" clip-path="url(#SVGID_3_)" fill="#0083CD" width="70.526" height="0.574"/>
		
			<rect x="285.221" y="139.286" transform="matrix(-0.9998 -0.0174 0.0174 -0.9998 638.4883 284.7079)" clip-path="url(#SVGID_3_)" fill="#0081CB" width="70.526" height="0.574"/>
		
			<rect x="285.211" y="139.829" transform="matrix(-0.9998 -0.0174 0.0174 -0.9998 638.4554 285.8023)" clip-path="url(#SVGID_3_)" fill="#007FCA" width="70.527" height="0.574"/>
		
			<rect x="285.2" y="140.375" transform="matrix(-0.9998 -0.0174 0.0174 -0.9998 638.4254 286.8939)" clip-path="url(#SVGID_3_)" fill="#007DC8" width="70.527" height="0.574"/>
		
			<rect x="285.19" y="140.919" transform="matrix(-0.9998 -0.0174 0.0174 -0.9998 638.3984 287.978)" clip-path="url(#SVGID_3_)" fill="#007BC6" width="70.528" height="0.574"/>
		
			<rect x="285.18" y="141.465" transform="matrix(-0.9998 -0.0175 0.0175 -0.9998 638.3652 289.0783)" clip-path="url(#SVGID_3_)" fill="#0079C5" width="70.528" height="0.574"/>
		
			<rect x="285.172" y="142.01" transform="matrix(-0.9998 -0.0175 0.0175 -0.9998 638.3372 290.168)" clip-path="url(#SVGID_3_)" fill="#0077C3" width="70.527" height="0.574"/>
		
			<rect x="285.163" y="142.556" transform="matrix(-0.9998 -0.0174 0.0174 -0.9998 638.3116 291.2542)" clip-path="url(#SVGID_3_)" fill="#0075C1" width="70.527" height="0.574"/>
		
			<rect x="285.154" y="143.101" transform="matrix(-0.9998 -0.0174 0.0174 -0.9998 638.2845 292.3438)" clip-path="url(#SVGID_3_)" fill="#0073C0" width="70.527" height="0.574"/>
		
			<rect x="285.144" y="143.646" transform="matrix(-0.9998 -0.0174 0.0174 -0.9998 638.2576 293.4299)" clip-path="url(#SVGID_3_)" fill="#0071BE" width="70.528" height="0.574"/>
		
			<rect x="285.134" y="144.19" transform="matrix(-0.9998 -0.0175 0.0175 -0.9998 638.2202 294.5352)" clip-path="url(#SVGID_3_)" fill="#006FBC" width="70.528" height="0.574"/>
		
			<rect x="285.124" y="144.734" transform="matrix(-0.9998 -0.0175 0.0175 -0.9998 638.1929 295.6193)" clip-path="url(#SVGID_3_)" fill="#006DBB" width="70.528" height="0.574"/>
		
			<rect x="285.115" y="145.279" transform="matrix(-0.9998 -0.0174 0.0174 -0.9998 638.1684 296.7002)" clip-path="url(#SVGID_3_)" fill="#006BB9" width="70.527" height="0.574"/>
		
			<rect x="285.104" y="145.825" transform="matrix(-0.9998 -0.0175 0.0175 -0.9998 638.1368 297.7951)" clip-path="url(#SVGID_3_)" fill="#0069B7" width="70.528" height="0.574"/>
		
			<rect x="285.096" y="146.37" transform="matrix(-0.9998 -0.0174 0.0174 -0.9998 638.1123 298.8813)" clip-path="url(#SVGID_3_)" fill="#0067B5" width="70.528" height="0.574"/>
		
			<rect x="285.087" y="146.915" transform="matrix(-0.9998 -0.0175 0.0175 -0.9998 638.0836 299.9743)" clip-path="url(#SVGID_3_)" fill="#0065B4" width="70.528" height="0.574"/>
		
			<rect x="285.078" y="147.46" transform="matrix(-0.9998 -0.0175 0.0175 -0.9998 638.0545 301.0659)" clip-path="url(#SVGID_3_)" fill="#0063B2" width="70.527" height="0.574"/>
		
			<rect x="285.067" y="148.005" transform="matrix(-0.9998 -0.0175 0.0175 -0.9998 638.0245 302.1555)" clip-path="url(#SVGID_3_)" fill="#0061B0" width="70.528" height="0.574"/>
		
			<rect x="285.058" y="148.552" transform="matrix(-0.9998 -0.0174 0.0174 -0.9998 638.0024 303.2328)" clip-path="url(#SVGID_3_)" fill="#005FAF" width="70.528" height="0.572"/>
		
			<rect x="285.048" y="149.097" transform="matrix(-0.9998 -0.0174 0.0174 -0.9998 637.9707 304.3278)" clip-path="url(#SVGID_3_)" fill="#005DAD" width="70.528" height="0.572"/>
		
			<rect x="285.039" y="149.641" transform="matrix(-0.9998 -0.0174 0.0174 -0.9998 637.9426 305.4155)" clip-path="url(#SVGID_3_)" fill="#005AAB" width="70.527" height="0.572"/>
		
			<rect x="285.03" y="150.188" transform="matrix(-0.9998 -0.0174 0.0174 -0.9998 637.9151 306.508)" clip-path="url(#SVGID_3_)" fill="#0058AA" width="70.528" height="0.571"/>
		
			<rect x="285.02" y="150.731" transform="matrix(-0.9998 -0.0175 0.0175 -0.9998 637.8817 307.6044)" clip-path="url(#SVGID_3_)" fill="#0056A8" width="70.528" height="0.573"/>
		
			<rect x="285.01" y="151.273" transform="matrix(-0.9998 -0.0175 0.0175 -0.9998 637.8521 308.6954)" clip-path="url(#SVGID_3_)" fill="#0054A6" width="70.528" height="0.575"/>
		
			<rect x="285.001" y="151.82" transform="matrix(-0.9998 -0.0174 0.0174 -0.9998 637.8282 309.7792)" clip-path="url(#SVGID_3_)" fill="#0052A5" width="70.528" height="0.574"/>
		
			<rect x="284.991" y="152.364" transform="matrix(-0.9998 -0.0174 0.0174 -0.9998 637.7987 310.8678)" clip-path="url(#SVGID_3_)" fill="#0050A3" width="70.528" height="0.575"/>
		
			<rect x="284.981" y="152.91" transform="matrix(-0.9998 -0.0174 0.0174 -0.9998 637.7692 311.9584)" clip-path="url(#SVGID_3_)" fill="#004EA2" width="70.528" height="0.574"/>
	</g>
	<g>
		<defs>
			<path id="SVGID_4_" d="M349.568,133.625c0.094,0.176,0.202,0.309,0.202,0.309l-1.323-0.135c-0.061,0.047-1.145,0.813-2.854,2.017
				l-49.771-0.002l-3.111-2.188H349.568L349.568,133.625z"/>
		</defs>
		<clipPath id="SVGID_5_">
			<use xlink:href="#SVGID_4_"  overflow="visible"/>
		</clipPath>
		
			<rect x="285.334" y="132.746" transform="matrix(-0.9998 -0.0175 0.0175 -0.9998 638.8231 271.6429)" clip-path="url(#SVGID_5_)" fill="#0097DE" width="70.527" height="0.574"/>
		
			<rect x="285.324" y="133.291" transform="matrix(-0.9998 -0.0174 0.0174 -0.9998 638.7974 272.7247)" clip-path="url(#SVGID_5_)" fill="#0095DD" width="70.527" height="0.573"/>
		
			<rect x="285.315" y="133.834" transform="matrix(-0.9998 -0.0174 0.0174 -0.9998 638.7704 273.8113)" clip-path="url(#SVGID_5_)" fill="#0093DB" width="70.528" height="0.574"/>
		
			<rect x="285.305" y="134.379" transform="matrix(-0.9998 -0.0174 0.0174 -0.9998 638.7429 274.9019)" clip-path="url(#SVGID_5_)" fill="#0092DA" width="70.528" height="0.575"/>
		
			<rect x="285.296" y="134.925" transform="matrix(-0.9998 -0.0175 0.0175 -0.9998 638.7109 276.0013)" clip-path="url(#SVGID_5_)" fill="#0090D8" width="70.528" height="0.574"/>
		
			<rect x="285.287" y="135.469" transform="matrix(-0.9998 -0.0175 0.0175 -0.9998 638.6799 277.0933)" clip-path="url(#SVGID_5_)" fill="#008ED7" width="70.528" height="0.575"/>
		
			<rect x="285.278" y="136.015" transform="matrix(-0.9998 -0.0175 0.0175 -0.9998 638.6533 278.1805)" clip-path="url(#SVGID_5_)" fill="#008CD5" width="70.527" height="0.574"/>
	</g>
	<g>
		<defs>
			<path id="SVGID_6_" d="M291.781,131.437c-0.392,0.156-0.741,0.149-0.889,0H291.781L291.781,131.437z M296.518,131.437
				c0.018,0.035,0.029,0.059,0.035,0.069c0,0-0.586-0.031-0.946,0.035c0,0,0.016-0.038,0.038-0.104H293.7
				c-0.029,0.278-0.184,0.569-0.5,0.766c-0.249,0.156-0.641,0.03-0.973-0.094c-0.834-0.311-1.016,0.505-0.209,1.028l0.694,0.488
				h56.857c-0.099-0.199-0.179-0.449-0.076-0.64c0.285-0.518,1.258-1.125,3.469-0.396c-0.459-0.588-0.717-0.955-0.85-1.157
				l-1.909,0.005c-0.066,0.013-0.131,0.021-0.196,0.025c-0.009-0.01-0.017-0.021-0.025-0.03l-1.34,0.005
				c-0.831,0.236-1.757,0.471-2.005-0.005l-1.739,0.005c0.244,0.286,0.246,0.619-0.044,0.865c-0.522,0.445-1.164,0.143-1.498-0.865
				h-0.023c0.107,1.041-0.5,1.739-0.949,1.759c-0.7,0.031-0.886-0.566,0.225-1.756l-0.045-0.003c-0.95,0.734-1.74,0.801-1.831,0.373
				c-0.027-0.126,0.008-0.255,0.094-0.373H296.518L296.518,131.437z"/>
		</defs>
		<clipPath id="SVGID_7_">
			<use xlink:href="#SVGID_6_"  overflow="visible"/>
		</clipPath>
		
			<rect x="285.373" y="130.565" transform="matrix(-0.9998 -0.0174 0.0174 -0.9998 638.9412 267.2792)" clip-path="url(#SVGID_7_)" fill="#009EE4" width="70.527" height="0.574"/>
		
			<rect x="285.363" y="131.109" transform="matrix(-0.9998 -0.0175 0.0175 -0.9998 638.9098 268.3712)" clip-path="url(#SVGID_7_)" fill="#009CE3" width="70.528" height="0.575"/>
		
			<rect x="285.353" y="131.655" transform="matrix(-0.9998 -0.0175 0.0175 -0.9998 638.8812 269.4627)" clip-path="url(#SVGID_7_)" fill="#009AE1" width="70.528" height="0.575"/>
		
			<rect x="285.343" y="132.2" transform="matrix(-0.9998 -0.0174 0.0174 -0.9998 638.8536 270.5479)" clip-path="url(#SVGID_7_)" fill="#0099E0" width="70.528" height="0.574"/>
		
			<rect x="285.334" y="132.746" transform="matrix(-0.9998 -0.0175 0.0175 -0.9998 638.8231 271.6429)" clip-path="url(#SVGID_7_)" fill="#0097DE" width="70.527" height="0.574"/>
		
			<rect x="285.324" y="133.291" transform="matrix(-0.9998 -0.0174 0.0174 -0.9998 638.7974 272.7247)" clip-path="url(#SVGID_7_)" fill="#0095DD" width="70.527" height="0.573"/>
		
			<rect x="285.315" y="133.834" transform="matrix(-0.9998 -0.0174 0.0174 -0.9998 638.7704 273.8113)" clip-path="url(#SVGID_7_)" fill="#0093DB" width="70.528" height="0.574"/>
	</g>
	<g>
		<defs>
			<path id="SVGID_8_" d="M286.885,129.248c-0.512,0.441-1.07,1.229-1.223,1.979c-0.44-1.211-0.23-1.612-0.23-1.612
				c0.041-0.138,0.141-0.261,0.271-0.372L286.885,129.248L286.885,129.248z M288.363,129.248c-0.088,0.14-0.162,0.287-0.221,0.429
				c0,0-0.057-0.22-0.164-0.428L288.363,129.248L288.363,129.248z M292.877,129.248c-0.208,0.287-0.495,0.41-0.805,0.291
				c-0.139-0.053-0.229-0.156-0.271-0.291H292.877L292.877,129.248z M295.63,129.248c0.164,0.133,0.325,0.506,0.401,0.574
				c0.082,0.07,0.691-0.235,1.518-0.139c0.528,0.154,1.188,1.049,1.229,1.549c-1.091-0.988-2.214-0.988-2.417-0.891
				c-0.334,0.154,0.035,0.862,0.157,1.097l44.306-0.002c0.267-0.376,1.027-0.683,1.872-0.693c-0.684-0.063-1.511-0.839-0.829-1.404
				c0.046-0.038,0.097-0.071,0.152-0.096l-37.555,0.005c-0.048,0.093-0.156,0.16-0.279,0.187c-0.215-0.06-0.36-0.12-0.479-0.191
				l-0.233,0.005c0.078,0.196,0.162,0.441,0.034,0.609c-0.227,0.189-0.485-0.067-0.612-0.186c-0.062-0.061-0.137-0.234-0.205-0.429
				l-0.236,0.005c-0.256,0.147-0.708,0.338-0.922,0.055c-0.003-0.02,0-0.039,0.001-0.057L295.63,129.248L295.63,129.248z
				 M343.354,129.248c-0.119,0.31-0.188,0.681-0.156,1.083c-0.063-0.605-0.309-0.946-0.591-1.083H343.354L343.354,129.248z
				 M348.636,129.248c0.176,0.104,0.402,0.201,0.559,0.5c-0.004-0.098-0.025-0.275-0.014-0.5h1.106
				c0.02,0.495-0.014,0.813-0.361,1.06c-0.39,0.168-0.567-0.089-0.696-0.353c-0.076,0.062-0.198,0.088-0.307,0.172
				c-0.395,0.299-0.985,0.273-1.221,0.24c-0.764-0.111-1.079,0.039-1.128,0.68c-0.014,0.163,0.009,0.289,0.061,0.385l-1.739,0.005
				c-0.202-0.239-0.569-0.448-1.075-0.552c1.321,0.111,2.126-0.461,1.973-1.023c-0.162-0.603-1.249-0.198-2.065,0.511
				c0.389-0.358,0.707-0.776,0.857-1.126L348.636,129.248L348.636,129.248z M351.733,129.248c0.131,0.238,0.16,0.461,0.08,0.582
				c-0.248,0.367-0.971-0.127-1.34-0.582H351.733L351.733,129.248z M290.892,131.437c-0.045-0.045-0.073-0.104-0.077-0.176
				c-0.029-0.591,0.706-0.484,1.597-0.939c0.551-0.282,0.705-0.706,0.963-1.052c-0.008-0.009-0.014-0.016-0.02-0.026l2.23,0.005
				c-0.055,0.129-0.057,0.613-0.057,0.613c-0.188,0.047-0.866-0.435-1.138-0.46c-0.697-0.064-1.03,0.904-1.807,1.121
				c0.601,0.345,1.817-0.788,2.906-0.286c0.418,0.216,0.239,0.93,0.155,1.2H293.7c0.068-0.622-0.461-1.177-1.153-0.501
				c-0.244,0.238-0.514,0.404-0.766,0.504L290.892,131.437L290.892,131.437z M342.561,131.437c0.074-0.059,0.15-0.121,0.229-0.188
				c-0.065,0.065-0.127,0.13-0.184,0.191L342.561,131.437L342.561,131.437z M343.331,131.437c-0.003-0.043-0.008-0.083-0.013-0.119
				c0.011,0.041,0.023,0.08,0.037,0.119H343.331L343.331,131.437z M348.64,131.437c0.021-0.005,0.045-0.013,0.066-0.019
				c0.313-0.313,0.402-0.654,0.402-0.654l0.387,0.506c0.202-0.001,0.367,0.044,0.485,0.162L348.64,131.437L348.64,131.437z
				 M350.202,131.437c0.564-0.105,1.186-0.489,1.788-0.193c0,0,0.033,0.059,0.121,0.188L350.202,131.437L350.202,131.437z"/>
		</defs>
		<clipPath id="SVGID_9_">
			<use xlink:href="#SVGID_8_"  overflow="visible"/>
		</clipPath>
		
			<rect x="285.415" y="128.115" transform="matrix(-0.9998 -0.0174 0.0174 -0.9998 639.0689 262.3799)" clip-path="url(#SVGID_9_)" fill="#00A4EA" width="70.528" height="0.574"/>
		
			<rect x="285.41" y="128.386" transform="matrix(-0.9998 -0.0174 0.0174 -0.9998 639.0535 262.9189)" clip-path="url(#SVGID_9_)" fill="#00A4EA" width="70.527" height="0.572"/>
		
			<rect x="285.399" y="128.929" transform="matrix(-0.9998 -0.0175 0.0175 -0.9998 639.0198 264.0162)" clip-path="url(#SVGID_9_)" fill="#00A3E9" width="70.528" height="0.575"/>
		
			<rect x="285.39" y="129.475" transform="matrix(-0.9998 -0.0174 0.0174 -0.9998 638.9954 265.098)" clip-path="url(#SVGID_9_)" fill="#00A1E7" width="70.528" height="0.574"/>
		
			<rect x="285.382" y="130.018" transform="matrix(-0.9998 -0.0175 0.0175 -0.9998 638.9645 266.1955)" clip-path="url(#SVGID_9_)" fill="#00A0E6" width="70.527" height="0.575"/>
		
			<rect x="285.373" y="130.565" transform="matrix(-0.9998 -0.0174 0.0174 -0.9998 638.9412 267.2792)" clip-path="url(#SVGID_9_)" fill="#009EE4" width="70.527" height="0.574"/>
		
			<rect x="285.363" y="131.109" transform="matrix(-0.9998 -0.0175 0.0175 -0.9998 638.9098 268.3712)" clip-path="url(#SVGID_9_)" fill="#009CE3" width="70.528" height="0.575"/>
		
			<rect x="285.353" y="131.655" transform="matrix(-0.9998 -0.0175 0.0175 -0.9998 638.8812 269.4627)" clip-path="url(#SVGID_9_)" fill="#009AE1" width="70.528" height="0.575"/>
	</g>
	<g>
		<defs>
			<path id="SVGID_10_" d="M288.458,127.059c-0.231,0.45-0.303,0.895-0.139,1.178c0.165,0.285,0.778,0.218,0.778,0.218
				c-0.292,0.197-0.544,0.484-0.735,0.794h-0.385c-0.098-0.188-0.237-0.365-0.413-0.364c-0.178,0.004-0.424,0.139-0.68,0.362
				l-1.183,0.002c0.497-0.422,1.447-0.681,1.392-1.019c-0.085-0.235-0.342-0.646-0.342-0.646l0.665,0.209
				c0.205,0.013,0.232-0.332,0.279-0.734H288.458L288.458,127.059z M291.81,127.059c0.176,0.046,0.362,0.111,0.54,0.194
				c-0.072-0.056-0.139-0.124-0.199-0.196l0.868,0.002c0,0.002,0,0.011,0.002,0.018c0-0.005,0-0.013,0.002-0.018h1.042
				c-0.101,0.149-0.223,0.272-0.342,0.335c0.299-0.119,0.844-0.079,1.03,0.01c0.01-0.144,0.07-0.259,0.165-0.347l1.578,0.002
				c0.149,0.135,0.186,0.322,0.012,0.547c0,0-0.504,0.524-0.248,0.821c0.527,0.608,1.635-0.587,1.713-1.37l-1.426,0.002
				c0.162,0.217,0.545,0.45,0.959,0.371c-0.137,0.16-0.182,0.42-0.174,0.685c0.008,0.276,0.308,0.537,0.583,0.484
				c0.5-0.095,0.396-0.643,0.322-0.895c0.156,0.592,0.588,1.059,0.999,0.824c0.406-0.23-0.023-1.039-0.492-1.057
				c0.979-0.263,0.946,0.228,1.149-0.15c-0.01-0.106-0.057-0.192-0.124-0.261l-0.888-0.002c0.374,0.127,0.747,0.288,0.87,0.459
				c0.475,0.659,1.515,0.483,1.397-0.461l4.441,0.002c0.016,0.029,0.039,0.055,0.073,0.077c0.109,0.072,0.261,0.028,0.318-0.064
				c0.003-0.004,0.006-0.011,0.008-0.015l0.959,0.002c-0.016,0.088-0.151,0.11-0.174,0.248c-0.018,0.107,0.073,0.196,0.209,0.202
				c0.139,0.003,0.231-0.104,0.211-0.207c-0.023-0.116-0.15-0.148-0.166-0.241l0.952-0.002c0.006,0.014,0.014,0.029,0.023,0.046
				c0.062,0.097,0.197,0.124,0.311,0.06c0.049-0.027,0.078-0.066,0.086-0.108l13.13,0.003c-0.092,0.191-0.162,0.479-0.277,1.353
				c0,0,0.964-1.163,2-1.353h0.532c0.016,0,0.031,0.002,0.049,0.005c0.346,0.083,0.313,0.918,0.313,0.918l1.286-0.742
				c0,0-0.137-0.072-0.284-0.183l9.651,0.002c0.845,0.41,1.718,0.345,1.685,0.547c-0.059,0.357-1.321,0.677-1.321,0.677l0.312,0.567
				c0.758-0.729,1.389,0.025,2.774-0.636c0.692-0.362,0.823-0.658,1.427-0.622c-0.795-0.772-2.175,0.17-1.89-0.531l3.452-0.002
				c0.042,0.093,0.092,0.075,0.178-0.003l2.366,0.003c0.1,0.312,0.104,1.307-0.364,2.046c-0.021,0.047-0.043,0.096-0.063,0.145
				l-0.747-0.001c-0.195-0.095-0.409-0.089-0.588-0.005l-37.555,0.005c0.098-0.187-0.036-0.476-0.729-0.731l0.44-0.299
				c0.317-0.239,0.011-0.588-0.381-0.394c0,0-0.455,0.183-0.516,0.316c0.034-0.183-0.01-0.433-0.178-0.596
				c-0.08-0.075-0.155-0.192-0.412-0.197l-0.2,0.079c-0.334,0.297,0.046,0.647,0.117,0.838c-0.35-0.24-0.764-0.373-1.15-0.225
				c-0.092,0.035-0.274,0.107-0.116,0.258c0.102,0.096,0.713,0.455,0.989,0.371c-0.187,0.137-0.751,0.245-0.796,0.577l-5.903,0.002
				c-0.012-0.01-0.022-0.018-0.031-0.024c-0.006,0.004-0.01,0.013-0.014,0.022l-2.23,0.002c-0.142-0.203-0.203-0.445-0.199-0.721
				c-0.053,0.291-0.151,0.534-0.279,0.716l-1.076,0.005c-0.105-0.331,0.071-0.854,0.481-1.288c-0.571,0.209-1.61-0.018-1.48-0.589
				c0.036-0.153,0.127-0.253,0.256-0.313H291.81L291.81,127.059z M349.357,127.059c0.119,0.159,0.227,0.338,0.307,0.531
				c-0.03-0.149-0.049-0.337-0.049-0.531h0.969c-0.023,0.231-0.078,0.455-0.151,0.623c0.168-0.184,1.552-0.76,1.656-0.02
				c0.094,0.68-1.397,0.771-1.397,0.771c0.514,0.158,0.868,0.499,1.041,0.815h-1.26c-0.098-0.119-0.17-0.236-0.203-0.334
				c0.006,0.118,0.012,0.229,0.018,0.332l-1.106,0.002c0.01-0.208,0.048-0.45,0.146-0.711c-0.025,0.019-1.09-0.069-0.938,0.446
				c0.039,0.126,0.13,0.198,0.246,0.265h-4.049c0.178-0.414,0.12-0.731-0.336-0.745c-0.057-0.002-0.115,0.007-0.17,0.019
				c0.172-0.116-0.088-0.714,0.293-0.974c0.295-0.204,0.664,0.099,0.749,0.814c0.383-1.069,1.286-1.253,1.602-0.87
				c0.366,0.444,0.134,1.154-0.533,1.592c1.253,0.082,1.476-0.913,2.847-1.074c-0.38-0.12-0.834-0.556-1.002-0.951H349.357
				L349.357,127.059z M355.91,127.059c-0.24,0.191-0.792,0.27-1.337,0.214c0.815,0.113,1.576,0.546,1.292,0.964
				c-0.266,0.39-0.995,0.212-1.558-0.639c0.396,0.79,0.164,1.447-0.359,1.368c-0.538-0.078-0.649-0.663-0.139-1.441
				c-0.588,0.688-1.342,0.704-1.577,0.436c-0.369-0.424-0.051-0.875,1.366-0.788c-0.198-0.027-0.374-0.066-0.53-0.115
				L355.91,127.059L355.91,127.059z M302.69,129.248c-0.017-0.048-0.033-0.095-0.049-0.139c-0.016,0.02-0.085,0.073-0.187,0.134
				L302.69,129.248L302.69,129.248z M303.707,129.248c-0.113-0.071-0.207-0.146-0.318-0.231c0.016,0.062,0.051,0.142,0.085,0.229
				L303.707,129.248L303.707,129.248z"/>
		</defs>
		<clipPath id="SVGID_11_">
			<use xlink:href="#SVGID_10_"  overflow="visible"/>
		</clipPath>
		
			<rect x="285.452" y="125.939" transform="matrix(-0.9998 -0.0174 0.0174 -0.9998 639.1816 258.0273)" clip-path="url(#SVGID_11_)" fill="#00A6D8" width="70.528" height="0.572"/>
		
			<rect x="285.443" y="126.481" transform="matrix(-0.9998 -0.0175 0.0175 -0.9998 639.1494 259.1228)" clip-path="url(#SVGID_11_)" fill="#00A6DD" width="70.528" height="0.575"/>
		
			<rect x="285.433" y="127.026" transform="matrix(-0.9998 -0.0175 0.0175 -0.9998 639.1222 260.2061)" clip-path="url(#SVGID_11_)" fill="#00A5E1" width="70.527" height="0.574"/>
		
			<rect x="285.423" y="127.569" transform="matrix(-0.9998 -0.0175 0.0175 -0.9998 639.0867 261.3069)" clip-path="url(#SVGID_11_)" fill="#00A5E6" width="70.528" height="0.575"/>
		
			<rect x="285.415" y="128.115" transform="matrix(-0.9998 -0.0174 0.0174 -0.9998 639.0689 262.3799)" clip-path="url(#SVGID_11_)" fill="#00A4EA" width="70.528" height="0.574"/>
		
			<rect x="285.41" y="128.386" transform="matrix(-0.9998 -0.0174 0.0174 -0.9998 639.0535 262.9189)" clip-path="url(#SVGID_11_)" fill="#00A4EA" width="70.527" height="0.572"/>
		
			<rect x="285.399" y="128.929" transform="matrix(-0.9998 -0.0175 0.0175 -0.9998 639.0198 264.0162)" clip-path="url(#SVGID_11_)" fill="#00A3E9" width="70.528" height="0.575"/>
		
			<rect x="285.39" y="129.475" transform="matrix(-0.9998 -0.0174 0.0174 -0.9998 638.9954 265.098)" clip-path="url(#SVGID_11_)" fill="#00A1E7" width="70.528" height="0.574"/>
	</g>
	<g>
		<defs>
			<path id="SVGID_12_" d="M288.822,126.505c-0.145,0.18-0.268,0.366-0.363,0.552l-0.762,0.002c0.021-0.182,0.047-0.376,0.095-0.555
				L288.822,126.505L288.822,126.505z M292.93,126.505c0.049,0.172,0.08,0.361,0.088,0.551l-0.868,0.003
				c-0.131-0.162-0.232-0.358-0.292-0.552L292.93,126.505L292.93,126.505z M294.307,126.505c-0.035,0.185-0.127,0.386-0.244,0.554
				h-1.042c0.035-0.184,0.109-0.378,0.209-0.554H294.307L294.307,126.505z M297.909,126.505c0.001,0,0.001,0.002,0.004,0.008
				c0-0.006,0.001-0.008,0.001-0.011l0.854,0.003c-0.011,0.098-0.031,0.196-0.053,0.304c0.076-0.027,0.763-0.043,1.051,0.252
				l-0.888-0.002c-0.462-0.157-0.926-0.26-0.926-0.26c0.022,0.078,0.027,0.167,0.018,0.258l-1.426,0.002
				c-0.135-0.186-0.117-0.36,0.16-0.345l0.577,0.081c-0.084-0.104-0.153-0.201-0.208-0.291L297.909,126.505L297.909,126.505z
				 M299.902,126.505c-0.105,0.066-0.225,0.082-0.354,0.021c-0.014-0.006-0.026-0.012-0.037-0.019L299.902,126.505L299.902,126.505z
				 M306.269,126.505l-0.243,0.276c-0.07,0.081,0.012,0.172-0.039,0.275l0.959,0.002c0-0.003,0.001-0.01,0.001-0.016v-0.538H306.269
				L306.269,126.505z M307.038,126.505l-0.013,0.538c0,0.006,0.001,0.013,0.001,0.018l0.952-0.002
				c-0.037-0.105,0.041-0.181-0.021-0.252l-0.264-0.302H307.038L307.038,126.505z M307.789,126.505l0.23,0.263
				c0.074,0.086,0.21,0.039,0.316,0.126c0.053,0.044,0.075,0.105,0.063,0.162l13.13,0.003c0.04-0.08,0.08-0.142,0.131-0.222
				c0.121-0.193,0.383-0.282,0.674-0.327L307.789,126.505L307.789,126.505z M324.784,126.505c-0.001,0.062,0.006,0.118,0.022,0.17
				c0.055,0.142,0.203,0.278,0.342,0.382l9.651,0.002c-0.262-0.133-0.521-0.307-0.752-0.549L324.784,126.505L324.784,126.505z
				 M336.798,126.505c0.067,0.054,0.133,0.113,0.201,0.181c0.002-0.061,0-0.119-0.007-0.181H336.798L336.798,126.505z
				 M337.97,126.505c-0.025,0.153-0.087,0.33-0.178,0.54c-0.003,0.007-0.006,0.012-0.008,0.016l3.452-0.002
				c-0.036-0.077-0.069-0.221-0.116-0.456c-0.006-0.036-0.009-0.067-0.014-0.099L337.97,126.505L337.97,126.505z M343.346,126.505
				c0.168,0.113,0.323,0.276,0.422,0.522c0.004,0.009,0.008,0.021,0.012,0.029l-2.366,0.002c0.121-0.113,0.314-0.34,0.674-0.555
				L343.346,126.505L343.346,126.505z M348.72,126.505c0.215,0.108,0.443,0.306,0.637,0.556l-1.321-0.002
				c-0.082-0.197-0.094-0.385,0.01-0.518c0.008-0.01,0.017-0.021,0.025-0.031L348.72,126.505L348.72,126.505z M350.571,126.505
				c0.031,0.169,0.033,0.363,0.013,0.554h-0.969c0-0.188,0.019-0.385,0.066-0.552L350.571,126.505L350.571,126.505z
				 M353.519,126.505c0.118,0.099,0.233,0.214,0.339,0.343c-0.064-0.098-0.11-0.219-0.137-0.344l0.915,0.001
				c-0.061,0.138-0.157,0.278-0.293,0.425c0.191-0.195,0.405-0.338,0.612-0.426l0.903,0.001c0.033,0.025,0.062,0.054,0.088,0.087
				c0.145,0.193,0.111,0.352-0.035,0.467h-2.842c-0.458-0.142-0.742-0.354-0.823-0.554H353.519L353.519,126.505z M291.06,127.059
				c0.189-0.082,0.459-0.069,0.75,0H291.06L291.06,127.059z M294.916,127.059c0.367-0.354,1.249-0.305,1.578-0.002L294.916,127.059
				L294.916,127.059z M301.147,127.059c-0.01-0.077-0.025-0.157-0.051-0.244c0.8,0.316,1.04-0.041,1.03-0.215
				c-0.002-0.031-0.01-0.064-0.023-0.096l4.07,0.001l-0.209,0.242c-0.073,0.079-0.205,0.018-0.329,0.124
				c-0.063,0.055-0.078,0.128-0.047,0.188H301.147L301.147,127.059z M323.784,127.059c-0.176-0.036-0.356-0.033-0.532,0H323.784
				L323.784,127.059z"/>
		</defs>
		<clipPath id="SVGID_13_">
			<use xlink:href="#SVGID_12_"  overflow="visible"/>
		</clipPath>
		
			<rect x="285.462" y="125.394" transform="matrix(-0.9998 -0.0175 0.0175 -0.9998 639.2093 256.9431)" clip-path="url(#SVGID_13_)" fill="#00A7D3" width="70.528" height="0.574"/>
		
			<rect x="285.452" y="125.939" transform="matrix(-0.9998 -0.0174 0.0174 -0.9998 639.1816 258.0273)" clip-path="url(#SVGID_13_)" fill="#00A6D8" width="70.528" height="0.572"/>
		
			<rect x="285.443" y="126.481" transform="matrix(-0.9998 -0.0175 0.0175 -0.9998 639.1494 259.1228)" clip-path="url(#SVGID_13_)" fill="#00A6DD" width="70.528" height="0.575"/>
		
			<rect x="285.433" y="127.026" transform="matrix(-0.9998 -0.0175 0.0175 -0.9998 639.1222 260.2061)" clip-path="url(#SVGID_13_)" fill="#00A5E1" width="70.527" height="0.574"/>
		
			<rect x="285.423" y="127.569" transform="matrix(-0.9998 -0.0175 0.0175 -0.9998 639.0867 261.3069)" clip-path="url(#SVGID_13_)" fill="#00A5E6" width="70.528" height="0.575"/>
	</g>
	<g>
		<defs>
			<path id="SVGID_14_" d="M308.047,125.415l-0.076,0.021c0.017,0.063,0.029,0.13,0.029,0.195c0,0.087-0.018,0.17-0.049,0.247
				l0.676,0.184c0.121,0.033,0.199-0.07,0.347-0.053c0.125,0.016,0.221,0.123,0.173,0.229c-0.047,0.108-0.176,0.151-0.295,0.103
				c-0.161-0.063-0.131-0.186-0.248-0.219l-0.678-0.182c-0.07,0.139-0.188,0.256-0.333,0.342l0.196,0.222h14.544
				c0.555-0.085,1.221-0.017,1.225-0.209c0.014-0.368-0.085-0.647-0.085-0.647l0.557,0.305c0.26,0.045,0.395-0.231,0.549-0.534
				l-4.377-0.004c0.001,0.007,0.003,0.015,0.003,0.021c0.017,0.104-0.059,0.212-0.176,0.208c-0.113-0.004-0.188-0.093-0.174-0.201
				c0.002-0.011,0.004-0.018,0.006-0.026l-5.468-0.002c0.028,0.154,0.021,0.304-0.072,0.424c-0.292,0.243-0.625-0.086-0.788-0.239
				c-0.038-0.035-0.076-0.101-0.117-0.183L308.047,125.415L308.047,125.415z M325.765,125.415c-0.598,0.319-0.969,0.733-0.981,1.095
				l9.263-0.005c-0.254-0.267-0.469-0.621-0.609-1.09H325.765L325.765,125.415z M333.969,125.415
				c1.288,0.837,2.021,0.446,2.829,1.09h0.194c-0.049-0.384-0.301-0.776-0.543-1.086L333.969,125.415L333.969,125.415z
				 M337.093,125.415c0.729,0.382,0.95,0.651,0.877,1.089l3.137,0.001c-0.082-0.752,0.773-0.635,1.303-0.752l0.154,0.534
				c1.147-0.825,1.767,0.42,3.699-0.135c0.971-0.322,1.214-0.707,1.976-0.487c-0.059-0.093-0.124-0.175-0.192-0.248L337.093,125.415
				L337.093,125.415z M287.792,126.505c0.064-0.235,0.167-0.442,0.35-0.562c0,0,0.563-0.524,1.927-0.384
				c-0.483,0.183-0.92,0.54-1.247,0.944L287.792,126.505L287.792,126.505z M291.858,126.505c-0.097-0.321-0.074-0.635,0.135-0.753
				c0.405-0.231,0.772,0.178,0.937,0.755L291.858,126.505L291.858,126.505z M293.23,126.505c0.219-0.382,0.563-0.661,0.907-0.498
				c0.174,0.08,0.213,0.278,0.17,0.498H293.23L293.23,126.505z M297.074,126.505c-0.457-0.758,0.051-1.021,0.344-0.769
				c0.289,0.252,0.371,0.461,0.491,0.766L297.074,126.505L297.074,126.505z M297.915,126.505c0.064-0.234,0.055-0.755,0.375-0.885
				c0.331-0.051,0.434,0.349,0.487,0.54c0.019,0.074,0.014,0.199-0.008,0.35L297.915,126.505L297.915,126.505z M299.511,126.505
				c-0.418-0.235-0.051-0.869,0.153-1.055c-0.483,0.13-0.821,0.086-1.024-0.035h7.475c-0.022,0.072-0.035,0.144-0.035,0.217
				c0,0.068,0.01,0.131,0.029,0.195l-0.729,0.195c-0.117,0.031-0.179-0.083-0.355-0.056c-0.13,0.02-0.203,0.117-0.166,0.224
				c0.038,0.112,0.192,0.151,0.303,0.105c0.133-0.058,0.124-0.179,0.245-0.212l0.725-0.195c0.057,0.134,0.154,0.253,0.281,0.346
				l-0.238,0.271h-4.07c-0.066-0.165-0.274-0.33-0.559-0.209c-0.567,0.237-1.079-0.042-1.212-0.574
				c-0.039,0.285-0.197,0.649-0.43,0.788L299.511,126.505L299.511,126.505z M306.948,126.505v-0.081
				c-0.178-0.015-0.34-0.068-0.477-0.149l-0.203,0.23H306.948L306.948,126.505z M307.693,126.505l-0.166-0.187
				c-0.143,0.07-0.308,0.109-0.489,0.109v0.077H307.693L307.693,126.505z M342.088,126.505c0.09-0.054,0.189-0.106,0.299-0.155
				c0.092-0.041,0.569-0.087,0.959,0.16L342.088,126.505L342.088,126.505z M348.072,126.505c0.148-0.149,0.391-0.134,0.648-0.003
				L348.072,126.505L348.072,126.505z M349.682,126.505c0.082-0.284,0.247-0.493,0.534-0.461c0.201,0.022,0.311,0.21,0.356,0.463
				L349.682,126.505L349.682,126.505z M352.245,126.505c-0.037-0.096-0.027-0.188,0.033-0.269c0.209-0.28,0.755-0.139,1.241,0.269
				H352.245L352.245,126.505z M353.721,126.505c-0.092-0.451,0.066-0.981,0.584-0.897c0.331,0.055,0.557,0.421,0.331,0.902
				L353.721,126.505L353.721,126.505z M354.954,126.505c0.359-0.155,0.703-0.151,0.903-0.001L354.954,126.505L354.954,126.505z"/>
		</defs>
		<clipPath id="SVGID_15_">
			<use xlink:href="#SVGID_14_"  overflow="visible"/>
		</clipPath>
		
			<rect x="285.482" y="124.306" transform="matrix(-0.9998 -0.0174 0.0174 -0.9998 639.2689 254.7592)" clip-path="url(#SVGID_15_)" fill="#00A8C9" width="70.526" height="0.574"/>
		
			<rect x="285.472" y="124.85" transform="matrix(-0.9998 -0.0175 0.0175 -0.9998 639.2366 255.8589)" clip-path="url(#SVGID_15_)" fill="#00A7CE" width="70.528" height="0.574"/>
		
			<rect x="285.462" y="125.394" transform="matrix(-0.9998 -0.0175 0.0175 -0.9998 639.2093 256.9431)" clip-path="url(#SVGID_15_)" fill="#00A7D3" width="70.528" height="0.574"/>
		
			<rect x="285.452" y="125.939" transform="matrix(-0.9998 -0.0174 0.0174 -0.9998 639.1816 258.0273)" clip-path="url(#SVGID_15_)" fill="#00A6D8" width="70.528" height="0.572"/>
		
			<rect x="285.443" y="126.481" transform="matrix(-0.9998 -0.0175 0.0175 -0.9998 639.1494 259.1228)" clip-path="url(#SVGID_15_)" fill="#00A6DD" width="70.528" height="0.575"/>
		
			<rect x="285.433" y="127.026" transform="matrix(-0.9998 -0.0175 0.0175 -0.9998 639.1222 260.2061)" clip-path="url(#SVGID_15_)" fill="#00A5E1" width="70.527" height="0.574"/>
	</g>
	<g>
		<defs>
			<path id="SVGID_16_" d="M295.968,124.869c-0.072,0.139-0.199,0.229-0.376,0.262c-0.281,0.047-0.516-0.049-0.674-0.262H295.968
				L295.968,124.869z M302.159,124.869c0.023,0.398,0.731,0.68,0.995-0.006l3.166,0.006l0.124,0.141
				c-0.134,0.087-0.239,0.204-0.301,0.339l-0.723-0.193c-0.116-0.033-0.086-0.156-0.246-0.219c-0.122-0.048-0.249-0.006-0.295,0.103
				c-0.049,0.107,0.047,0.212,0.172,0.229c0.146,0.021,0.225-0.085,0.345-0.052l0.724,0.194c-0.002,0.004-0.002,0.007-0.004,0.009
				l-7.475-0.004c-0.221-0.129-0.288-0.35-0.217-0.544L302.159,124.869L302.159,124.869z M306.415,124.869l0.09,0.103
				c0.08-0.044,0.168-0.078,0.264-0.101L306.415,124.869L306.415,124.869z M307.311,124.869c0.095,0.024,0.186,0.06,0.267,0.105
				l0.092-0.105H307.311L307.311,124.869z M307.765,124.869l-0.125,0.144c0.141,0.093,0.249,0.219,0.307,0.361l0.673-0.179
				c0.121-0.033,0.111-0.154,0.244-0.212c0.111-0.048,0.264-0.007,0.303,0.102c0.035,0.11-0.035,0.208-0.167,0.227
				c-0.174,0.028-0.239-0.087-0.354-0.056l-0.598,0.159h5.37c-0.068-0.142-0.143-0.343-0.211-0.541
				c-0.072,0.088-1.047,0.757-1.435,0.248c-0.003-0.096,0.023-0.179,0.073-0.251L307.765,124.869L307.765,124.869z M314.207,124.869
				c0.058,0.154,0.152,0.354,0.187,0.546h5.468c0.029-0.122,0.141-0.14,0.141-0.235v-0.311h-0.733l-0.033,0.046
				c-0.063,0.087,0.015,0.18-0.041,0.292c-0.047,0.094-0.172,0.136-0.264,0.064c-0.09-0.071-0.1-0.187-0.021-0.266
				c0.102-0.108,0.212-0.045,0.271-0.128l0.008-0.009h-3.596c0.023,0.212-0.162,0.376-0.396,0.424
				c-0.442-0.123-0.651-0.252-0.878-0.422L314.207,124.869L314.207,124.869z M320.072,124.869l-0.005,0.311
				c0,0.099,0.105,0.13,0.135,0.235h4.377c0.1-0.19,0.207-0.398,0.361-0.543l-4.071-0.003l0.023,0.033
				c0.063,0.085,0.176,0.041,0.266,0.126c0.074,0.075,0.076,0.21-0.022,0.273c-0.094,0.063-0.205,0.036-0.258-0.062
				c-0.07-0.132,0.022-0.217-0.037-0.3l-0.052-0.071H320.072L320.072,124.869z M326.838,124.869c0.115,0.033,0.23,0.067,0.344,0.1
				c-0.543,0.08-1.028,0.243-1.417,0.448l7.672-0.002c-0.042-0.148-0.08-0.307-0.107-0.479c0.229,0.195,0.439,0.354,0.639,0.482
				l2.479-0.004c-0.19-0.239-0.375-0.43-0.449-0.523c0.449,0.203,0.811,0.371,1.094,0.522l10.955,0.001
				c-0.467-0.486-1.143-0.518-1.618-0.552l-2.297,0.006c-0.176,0.271-0.845,0.409-1.319,0.476c-0.006-0.094-0.037-0.211-0.1-0.353
				c-0.012-0.023-0.028-0.064-0.051-0.121l-4.81-0.002c-0.305,0.056-0.609,0.052-0.869,0H326.838L326.838,124.869z"/>
		</defs>
		<clipPath id="SVGID_17_">
			<use xlink:href="#SVGID_16_"  overflow="visible"/>
		</clipPath>
		
			<rect x="285.49" y="123.762" transform="matrix(-0.9998 -0.0175 0.0175 -0.9998 639.2925 253.6812)" clip-path="url(#SVGID_17_)" fill="#00A8C4" width="70.528" height="0.575"/>
		
			<rect x="285.482" y="124.306" transform="matrix(-0.9998 -0.0174 0.0174 -0.9998 639.2689 254.7592)" clip-path="url(#SVGID_17_)" fill="#00A8C9" width="70.526" height="0.574"/>
		
			<rect x="285.472" y="124.85" transform="matrix(-0.9998 -0.0175 0.0175 -0.9998 639.2366 255.8589)" clip-path="url(#SVGID_17_)" fill="#00A7CE" width="70.528" height="0.574"/>
		
			<rect x="285.462" y="125.394" transform="matrix(-0.9998 -0.0175 0.0175 -0.9998 639.2093 256.9431)" clip-path="url(#SVGID_17_)" fill="#00A7D3" width="70.528" height="0.574"/>
		
			<rect x="285.452" y="125.939" transform="matrix(-0.9998 -0.0174 0.0174 -0.9998 639.1816 258.0273)" clip-path="url(#SVGID_17_)" fill="#00A6D8" width="70.528" height="0.572"/>
	</g>
	<g>
		<defs>
			<path id="SVGID_18_" d="M294.592,123.767c-0.42,0.779-1.127,0.996-1.476,0.783c-0.33-0.201-0.441-0.488-0.227-0.783H294.592
				L294.592,123.767z M295.773,123.767c0.276,0.438,0.334,0.85,0.195,1.105l-1.051-0.003c-0.174-0.234-0.258-0.612-0.217-1.103
				H295.773L295.773,123.767z M297.291,123.767c-0.227,0.172-0.617,0.188-1.084,0.004L297.291,123.767L297.291,123.767z
				 M300.281,123.767c0.039,0.086,0.075,0.186,0.102,0.303c-0.006-0.112-0.002-0.212,0.012-0.301l1.075-0.002
				c-0.042,0.159-0.157,0.337-0.375,0.522c0.997-0.769,1.401-0.014,1.175,0.286c-0.082,0.096-0.115,0.198-0.109,0.291l-3.737,0.003
				c0.108-0.3,0.547-0.54,1.262-0.284c-0.49-0.26-0.631-0.568-0.586-0.816L300.281,123.767L300.281,123.767z M313.136,123.767
				c0.008,0.005,0.016,0.012,0.023,0.016c-0.002-0.004-0.004-0.011-0.008-0.016H313.136L313.136,123.767z M315.121,123.767
				l-0.504,0.342c0.69,0.252,0.95,0.533,0.977,0.761h3.596l0.365-0.506c-0.104-0.091-0.187-0.211-0.232-0.345l-0.605,0.195
				c-0.1,0.034-0.092,0.157-0.204,0.213c-0.094,0.048-0.219,0.009-0.252-0.104c-0.029-0.108,0.03-0.206,0.139-0.226
				c0.146-0.027,0.2,0.088,0.297,0.056l0.606-0.196c-0.014-0.061-0.023-0.121-0.023-0.186L315.121,123.767L315.121,123.767z
				 M320.877,123.767c-0.001,0.087-0.016,0.166-0.039,0.241l0.563,0.185c0.099,0.032,0.166-0.073,0.289-0.053
				c0.104,0.018,0.184,0.123,0.143,0.232c-0.039,0.104-0.146,0.15-0.246,0.102c-0.133-0.064-0.11-0.188-0.206-0.219l-0.566-0.185
				c-0.059,0.139-0.155,0.257-0.276,0.342l0.33,0.457h4.071c0.092-0.08,0.201-0.146,0.332-0.171
				c0.538-0.104,1.065,0.023,1.565,0.171h10.146c-0.524-0.104-0.858-0.413-0.596-0.863c0.166-0.286,0.573-0.177,0.885-0.242
				l-6.804,0.003c0.051,0.276-0.063,0.509-0.338,0.595c-0.4,0.126-0.711-0.099-0.811-0.599l-0.366,0.004
				c-0.314,0.394-0.729,0.533-0.969,0.432c-0.229-0.096-0.348-0.249-0.314-0.436L320.877,123.767L320.877,123.767z M341.73,123.767
				c0.566,0.345,0.825,0.857,0.932,1.104l-4.81-0.002c0.458-0.078,0.911-0.286,1.194-0.645c0.137-0.173,0.311-0.329,0.508-0.454
				L341.73,123.767L341.73,123.767z M346.293,123.767c-0.074,0.18-0.184,0.378-0.323,0.604c-0.262,0.428,0.008,0.465,0.459,0.492
				l-2.297,0.006c0.011-0.022,0.023-0.044,0.028-0.064c0.084-0.255-0.841-0.401-1.743-1.038H346.293L346.293,123.767z
				 M303.154,124.869c0.016-0.046,0.031-0.094,0.045-0.146c-0.184-0.182-0.373-0.522-0.42-0.957h8.696
				c0.012,0.018,0.028,0.037,0.049,0.056c0.133,0.127,0.922,0.59,1.281,0.481c-0.204,0.15-0.76,0.273-0.96,0.567l-4.079-0.002
				l0.295-0.335c0.073-0.082,0.204-0.019,0.327-0.127c0.094-0.08,0.082-0.196-0.026-0.264c-0.109-0.073-0.26-0.032-0.317,0.064
				c-0.068,0.109,0.028,0.202-0.049,0.289l-0.326,0.372h-0.359c-0.075-0.018-0.153-0.028-0.235-0.029v-0.604
				c0-0.102,0.151-0.117,0.176-0.264c0.018-0.109-0.072-0.196-0.209-0.201c-0.139-0.004-0.232,0.103-0.211,0.206
				c0.024,0.124,0.166,0.153,0.166,0.259v0.604c-0.078,0.001-0.156,0.014-0.228,0.031l-0.354-0.002l-0.348-0.397
				c-0.072-0.082,0.04-0.168-0.045-0.297c-0.062-0.098-0.197-0.125-0.311-0.063c-0.117,0.064-0.115,0.198-0.025,0.272
				c0.107,0.086,0.242,0.041,0.318,0.124l0.314,0.361H303.154L303.154,124.869z M314.319,124.869
				c-0.049-0.039-0.097-0.075-0.15-0.116c0.008,0.036,0.022,0.074,0.038,0.116H314.319L314.319,124.869z M320.002,124.869v-0.313
				c-0.148-0.015-0.284-0.067-0.396-0.151l-0.337,0.464H320.002L320.002,124.869z M320.79,124.869l-0.306-0.418
				c-0.119,0.067-0.257,0.108-0.406,0.108l-0.006,0.31H320.79L320.79,124.869z"/>
		</defs>
		<clipPath id="SVGID_19_">
			<use xlink:href="#SVGID_18_"  overflow="visible"/>
		</clipPath>
		
			<rect x="285.509" y="122.673" transform="matrix(-0.9998 -0.0175 0.0175 -0.9998 639.3478 251.5074)" clip-path="url(#SVGID_19_)" fill="#00A9BA" width="70.528" height="0.575"/>
		
			<rect x="285.5" y="123.221" transform="matrix(-0.9998 -0.0174 0.0174 -0.9998 639.3268 252.5823)" clip-path="url(#SVGID_19_)" fill="#00A9BF" width="70.528" height="0.572"/>
		
			<rect x="285.49" y="123.762" transform="matrix(-0.9998 -0.0175 0.0175 -0.9998 639.2925 253.6812)" clip-path="url(#SVGID_19_)" fill="#00A8C4" width="70.528" height="0.575"/>
		
			<rect x="285.482" y="124.306" transform="matrix(-0.9998 -0.0174 0.0174 -0.9998 639.2689 254.7592)" clip-path="url(#SVGID_19_)" fill="#00A8C9" width="70.526" height="0.574"/>
		
			<rect x="285.472" y="124.85" transform="matrix(-0.9998 -0.0175 0.0175 -0.9998 639.2366 255.8589)" clip-path="url(#SVGID_19_)" fill="#00A7CE" width="70.528" height="0.574"/>
		
			<rect x="285.462" y="125.394" transform="matrix(-0.9998 -0.0175 0.0175 -0.9998 639.2093 256.9431)" clip-path="url(#SVGID_19_)" fill="#00A7D3" width="70.528" height="0.574"/>
	</g>
	<g>
		<defs>
			<path id="SVGID_20_" d="M295.826,122.682c-0.096,0.027-0.195,0.053-0.295,0.074c1.006-0.181,2.099,0.062,1.96,0.697
				c-0.03,0.133-0.098,0.238-0.2,0.315l-1.084-0.002c-0.259-0.099-0.542-0.262-0.833-0.495c0.165,0.164,0.297,0.332,0.399,0.495
				H294.7c0.011-0.124,0.03-0.253,0.057-0.39c-0.047,0.142-0.104,0.271-0.166,0.387l-1.701,0.003
				c0.193-0.264,0.653-0.532,1.456-0.748c-0.995,0.179-1.704-0.022-1.921-0.337H295.826L295.826,122.682z M303.898,122.682
				c0.13,0.229,0.24,0.53,0.265,0.915c0.087-0.458,0.858-1.217,1.865-0.323c-0.178-0.17-0.344-0.379-0.481-0.598l0.885,0.006
				c0.01,0.012,0.02,0.025,0.029,0.039c-0.007-0.012-0.018-0.025-0.027-0.042l4.282,0.003c-0.148,0.28-0.358,0.551-0.604,0.799
				c0,0,1.206-0.188,1.511-0.802l1.434,0.003l-0.049,0.018c-0.422,0.376,0.037,0.814,0.143,1.067h-0.016
				c-0.444-0.3-0.972-0.464-1.462-0.273c-0.106,0.041-0.306,0.118-0.2,0.273h-8.696c-0.033-0.318,0.012-0.688,0.194-1.085H303.898
				L303.898,122.682z M313.593,122.682c0.093,0.049,0.148,0.119,0.205,0.172c0.217,0.209,0.272,0.531,0.231,0.768
				c0.076-0.172,0.666-0.404,0.666-0.404c0.506-0.254,0.899,0.196,0.491,0.507l-0.064,0.043h4.159c0,0,0-0.003,0-0.006
				c0-0.077,0.011-0.153,0.031-0.224l-0.6-0.194c-0.102-0.033-0.166,0.07-0.289,0.053c-0.104-0.016-0.184-0.124-0.145-0.232
				c0.041-0.108,0.147-0.151,0.247-0.103c0.134,0.063,0.109,0.188,0.207,0.219l0.602,0.196c0.051-0.136,0.138-0.254,0.25-0.341
				l-0.331-0.453h-2.005c-0.001,0.115,0.003,0.229,0.012,0.343c0.033,0.359-0.288,0.331-0.258,0.042
				c0.016-0.135,0.024-0.265,0.026-0.385h-1.337c0.037,0.145,0.092,0.303,0.168,0.483c-0.333-0.095-0.514-0.271-0.637-0.483H313.593
				L313.593,122.682z M319.33,122.682l0.305,0.414c0.117-0.078,0.258-0.127,0.408-0.133v-0.281H319.33L319.33,122.682z
				 M320.108,122.682v0.281c0.156,0.006,0.299,0.055,0.417,0.135l0.306-0.416H320.108L320.108,122.682z M320.911,122.682
				l-0.332,0.455c0.117,0.094,0.207,0.222,0.256,0.366l0.56-0.183c0.102-0.033,0.091-0.155,0.203-0.212
				c0.093-0.049,0.22-0.008,0.251,0.104c0.031,0.108-0.029,0.206-0.138,0.228c-0.147,0.025-0.199-0.089-0.296-0.058l-0.562,0.184
				c0.017,0.063,0.025,0.126,0.025,0.195c0,0.003,0,0.006,0,0.01l6.794-0.004c0.049-0.278,0.425-0.624,1.266-0.968
				c-0.927,0.297-1.586,0.174-1.711-0.117H320.911L320.911,122.682z M337.244,122.682c-0.065,0.02-0.129,0.039-0.167,0.053
				c0.025,0.094,0.209,0.205,0.428,0.168c-0.035,0.108-0.289,0.278-0.547,0.312c0.441,0.064,0.403,0.372,0.547,0.442
				c-0.066,0.058-0.144,0.091-0.232,0.107l-6.804,0.003c-0.049-0.279-0.26-0.606-0.637-0.892c0.95,0.556,1.743,0.384,1.815-0.114
				c0.006-0.03,0.006-0.056,0.006-0.083L337.244,122.682L337.244,122.682z M344.106,122.682c0.338,0.201,0.648,0.476,0.942,0.959
				c0.068-0.301,0.041-0.632-0.035-0.962l1.211,0.003c0.223,0.362,0.229,0.685,0.069,1.082l-3.875,0.003
				c-0.373-0.264-0.742-0.614-1.036-1.091L344.106,122.682L344.106,122.682z M350.852,122.682c-0.212,0.723-0.723,1.004-0.98,0.884
				c-0.332-0.161-0.364-0.501,0.146-0.884H350.852L350.852,122.682z M351.536,122.682c0.334,0.438,0.319,0.903-0.027,1.025
				c-0.404,0.146-0.691-0.247-0.637-1.029L351.536,122.682L351.536,122.682z M352.359,122.682c-0.135,0.039-0.303,0.043-0.494-0.003
				L352.359,122.682L352.359,122.682z M299.099,123.767c0.088-0.468,0.846-0.718,1.182,0H299.099L299.099,123.767z M300.395,123.767
				c0.139-0.989,1.249-0.663,1.075,0.002L300.395,123.767L300.395,123.767z M328.954,123.767c0.151-0.186,0.278-0.429,0.356-0.727
				c-0.035,0.28-0.029,0.522,0.01,0.723L328.954,123.767L328.954,123.767z M339.555,123.767c0.438-0.276,0.995-0.411,1.546-0.267
				c0.242,0.063,0.451,0.156,0.629,0.264L339.555,123.767L339.555,123.767z"/>
		</defs>
		<clipPath id="SVGID_21_">
			<use xlink:href="#SVGID_20_"  overflow="visible"/>
		</clipPath>
		
			<rect x="285.529" y="121.587" transform="matrix(-0.9998 -0.0174 0.0174 -0.9998 639.4121 249.3228)" clip-path="url(#SVGID_21_)" fill="#00AAAF" width="70.528" height="0.574"/>
		
			<rect x="285.52" y="122.13" transform="matrix(-0.9998 -0.0175 0.0175 -0.9998 639.38 250.4174)" clip-path="url(#SVGID_21_)" fill="#00AAB5" width="70.527" height="0.574"/>
		
			<rect x="285.509" y="122.673" transform="matrix(-0.9998 -0.0175 0.0175 -0.9998 639.3478 251.5074)" clip-path="url(#SVGID_21_)" fill="#00A9BA" width="70.528" height="0.575"/>
		
			<rect x="285.5" y="123.221" transform="matrix(-0.9998 -0.0174 0.0174 -0.9998 639.3268 252.5823)" clip-path="url(#SVGID_21_)" fill="#00A9BF" width="70.528" height="0.572"/>
		
			<rect x="285.49" y="123.762" transform="matrix(-0.9998 -0.0175 0.0175 -0.9998 639.2925 253.6812)" clip-path="url(#SVGID_21_)" fill="#00A8C4" width="70.528" height="0.575"/>
		
			<rect x="285.482" y="124.306" transform="matrix(-0.9998 -0.0174 0.0174 -0.9998 639.2689 254.7592)" clip-path="url(#SVGID_21_)" fill="#00A8C9" width="70.526" height="0.574"/>
	</g>
	<g>
		<defs>
			<path id="SVGID_22_" d="M293.717,122.132c0.254,0.08,0.523,0.21,0.782,0.378c-0.12-0.098-0.229-0.23-0.319-0.378h1.016
				c-0.023,0.093-0.053,0.188-0.092,0.289c0.043-0.103,0.09-0.2,0.143-0.292l1.61,0.003c-0.22,0.222-0.602,0.418-1.031,0.55h-3.4
				c-0.064-0.099-0.085-0.204-0.057-0.313c0.027-0.1,0.086-0.18,0.17-0.239L293.717,122.132L293.717,122.132z M303.423,122.132
				c0.106,0.078,0.309,0.256,0.475,0.55h-0.926c0.082-0.178,0.191-0.361,0.334-0.55H303.423L303.423,122.132z M305.911,122.132
				c0.168,0.132,0.346,0.31,0.521,0.55h-0.885c-0.113-0.188-0.207-0.374-0.27-0.552L305.911,122.132L305.911,122.132z
				 M310.032,122.132c-0.027,0.08-0.053,0.157-0.078,0.226c0.051-0.072,0.117-0.15,0.192-0.228l0.77,0.002
				c-0.039,0.188-0.107,0.369-0.202,0.546l-4.279,0.004c-0.07-0.117-0.178-0.322-0.262-0.552L310.032,122.132L310.032,122.132z
				 M315.007,122.132c0.061,0.19,0.12,0.382,0.213,0.55h-1.627c-0.077-0.05-0.178-0.081-0.327-0.083l-0.209,0.083h-1.434
				c0.064-0.132,0.089-0.278,0.054-0.446c-0.008-0.039-0.021-0.072-0.039-0.104H315.007L315.007,122.132z M317,122.132
				c0.022,0.171,0.032,0.353,0.026,0.55h-1.337c-0.05-0.205-0.07-0.383-0.074-0.55H317L317,122.132z M318.333,122.132
				c-0.021,0.073-0.047,0.14-0.074,0.201c-0.111,0.259,0.363,0.53,0.432-0.203l1.223,0.002c0.033,0.096,0.129,0.129,0.129,0.225
				v0.325h-0.713l-0.061-0.088c-0.06-0.082,0.034-0.168-0.037-0.299c-0.053-0.099-0.167-0.124-0.26-0.06
				c-0.098,0.063-0.095,0.195-0.02,0.271c0.088,0.086,0.201,0.041,0.264,0.126l0.035,0.05h-2.005
				c0.004-0.188,0.023-0.374,0.061-0.552L318.333,122.132L318.333,122.132z M320.245,122.132c-0.035,0.111-0.137,0.132-0.137,0.225
				v0.325h0.723l0.045-0.063c0.062-0.086-0.018-0.18,0.039-0.291c0.047-0.093,0.173-0.137,0.264-0.064
				c0.09,0.069,0.1,0.186,0.022,0.266c-0.102,0.108-0.214,0.046-0.272,0.127l-0.018,0.025h6.316
				c-0.021-0.051-0.028-0.106-0.017-0.166c0.044-0.213,0.259-0.342,0.563-0.381l-3.753-0.003c0.006,0,0.014,0.003,0.02,0.005
				c-0.35,0.133-0.717,0.111-1-0.008L320.245,122.132L320.245,122.132z M328.772,122.132c0.08,0.096,0.17,0.176,0.266,0.231
				c-0.289-0.128-0.584-0.207-0.852-0.233L328.772,122.132L328.772,122.132z M337.097,122.132c0.182,0.051,0.356,0.14,0.359,0.329
				c0.003,0.106-0.106,0.171-0.212,0.215l-5.591,0.006c-0.025-0.462-0.916-0.504-1.72-0.245c0.23-0.083,0.452-0.188,0.641-0.307
				L337.097,122.132L337.097,122.132z M342.977,122.132c0.412,0.21,0.786,0.343,1.129,0.55h-2.724c-0.1-0.17-0.191-0.35-0.271-0.547
				L342.977,122.132L342.977,122.132z M345.775,122.132c0.2,0.201,0.346,0.378,0.449,0.546l-1.211,0.004
				c-0.043-0.188-0.102-0.371-0.168-0.55H345.775L345.775,122.132z M352.648,122.132c0.022,0.051,0.031,0.11,0.022,0.179
				c-0.024,0.176-0.137,0.306-0.311,0.365l-0.494,0.006c-0.178-0.044-0.376-0.133-0.583-0.27c0.1,0.086,0.183,0.177,0.254,0.27
				h-0.664c0.003-0.042,0.007-0.086,0.011-0.127c-0.009,0.043-0.019,0.085-0.031,0.124l-0.834,0.003
				c0.149-0.111,0.34-0.225,0.583-0.338c-0.801,0.296-1.34,0.118-1.323-0.209L352.648,122.132L352.648,122.132z"/>
		</defs>
		<clipPath id="SVGID_23_">
			<use xlink:href="#SVGID_22_"  overflow="visible"/>
		</clipPath>
		
			<rect x="285.539" y="121.041" transform="matrix(-0.9998 -0.0175 0.0175 -0.9998 639.4376 248.241)" clip-path="url(#SVGID_23_)" fill="#00ABAA" width="70.528" height="0.575"/>
		
			<rect x="285.529" y="121.587" transform="matrix(-0.9998 -0.0174 0.0174 -0.9998 639.4121 249.3228)" clip-path="url(#SVGID_23_)" fill="#00AAAF" width="70.528" height="0.574"/>
		
			<rect x="285.52" y="122.13" transform="matrix(-0.9998 -0.0175 0.0175 -0.9998 639.38 250.4174)" clip-path="url(#SVGID_23_)" fill="#00AAB5" width="70.527" height="0.574"/>
		
			<rect x="285.509" y="122.673" transform="matrix(-0.9998 -0.0175 0.0175 -0.9998 639.3478 251.5074)" clip-path="url(#SVGID_23_)" fill="#00A9BA" width="70.528" height="0.575"/>
		
			<rect x="285.5" y="123.221" transform="matrix(-0.9998 -0.0174 0.0174 -0.9998 639.3268 252.5823)" clip-path="url(#SVGID_23_)" fill="#00A9BF" width="70.528" height="0.572"/>
	</g>
	<g>
		<defs>
			<path id="SVGID_24_" d="M288.617,121.037c-0.112,0.479-0.446,0.684-0.674,0.607c-0.282-0.097-0.403-0.316-0.219-0.604
				L288.617,121.037L288.617,121.037z M289.551,121.037c0.164,0.263,0.152,0.507-0.058,0.604c-0.297,0.137-0.603-0.087-0.758-0.602
				L289.551,121.037L289.551,121.037z M295.056,121.037c0.178,0.234,0.264,0.604,0.141,1.093l-1.016,0.002
				c-0.217-0.358-0.314-0.812-0.15-1.096L295.056,121.037L295.056,121.037z M300.707,121.037c-0.108,0.08-0.209,0.191-0.303,0.346
				l-0.279-0.346H300.707L300.707,121.037z M309.01,121.037c0.012,0.015,0.023,0.03,0.033,0.046
				c0.237,0.361,0.206,0.407,0.287,0.817c0.075-0.239,0.29-0.616,0.677-0.863h0.184c0.062,0.349-0.049,0.771-0.158,1.095h-3.859
				c-0.094-0.245-0.162-0.521-0.137-0.733c0.061-0.018,0.641,0.196,0.756,0.383c0.094-0.325,0.252-0.566,0.441-0.741L309.01,121.037
				L309.01,121.037z M313.692,121.037c0.133,0.065,0.236,0.134,0.299,0.196c-0.064,0.151-0.396,0.439-0.717,0.474
				c0.358,0.252,1.061,0.104,1.114-0.517c0.385,0.236,0.508,0.593,0.62,0.938l-3.369,0.003c-0.096-0.173-0.317-0.294-0.438-0.481
				c-0.139-0.214-0.23-0.415-0.283-0.61L313.692,121.037L313.692,121.037z M316.624,121.037c0.18,0.313,0.318,0.66,0.375,1.1
				l-1.383-0.005c-0.006-0.36,0.064-0.673,0.039-1.095H316.624L316.624,121.037z M318.501,121.037
				c-0.008,0.319-0.049,0.734-0.168,1.1l-1.025-0.005c0.086-0.422,0.26-0.798,0.504-1.096L318.501,121.037L318.501,121.037z
				 M321.859,121.037l0.016,0.019c0.004-0.006,0.01-0.011,0.014-0.019h2.63c0.196,0.263,0.311,0.538,0.193,0.757
				c0.166-0.175,0.405-0.476,0.599-0.752l3.409-0.005c-0.363,0.234-0.234,0.757,0.053,1.098l-0.586-0.003
				c-0.148-0.015-0.288-0.015-0.413,0.003l-3.753-0.003c-0.413-0.156-0.694-0.431-0.874-1.025c-0.051,0.248-0.106,0.551-0.491,0.736
				c0.09,0.121,0.223,0.22,0.383,0.286l-2.794,0.003c0.004-0.011,0.008-0.025,0.009-0.041c0.017-0.108-0.06-0.196-0.174-0.201
				c-0.115-0.003-0.193,0.104-0.176,0.207c0.002,0.013,0.006,0.024,0.01,0.035h-1.223c0.002-0.022,0.003-0.046,0.003-0.072
				c0.041-0.736,0.563-0.701,0.725-0.67c0.066-0.149,0.201-0.281,0.389-0.35L321.859,121.037L321.859,121.037z M332.954,121.037
				c0.063,0.054,0.135,0.054,0.202-0.001l0.87,0.001c-0.027,0.065-0.055,0.127-0.086,0.193c0.125-0.011,0.248-0.082,0.375-0.196
				l1.482,0.003c-0.444,0.458-0.891,0.713-0.891,0.713c0.582,0.106,0.928-0.316,1.545-0.504c0.328-0.098,0.725,0.327,0.281,0.662
				c-0.188,0.139,0.1,0.145,0.366,0.222l-6.523,0.002c0.545-0.336,0.833-0.76,0.372-0.994c-0.303-0.154-0.747,0.035-1.078,0.469
				c0,0-0.013-0.226,0.056-0.564L332.954,121.037L332.954,121.037z M341.516,121.037c0.541,0.569,1.023,0.874,1.461,1.095h-1.866
				c-0.13-0.317-0.225-0.682-0.276-1.098L341.516,121.037L341.516,121.037z M344.485,121.037c0.561,0.443,0.986,0.794,1.29,1.098
				l-0.93-0.003c-0.167-0.439-0.379-0.835-0.518-1.095H344.485L344.485,121.037z M351.073,121.037
				c0.073,0.185,0.088,0.453-0.007,0.801c0.105-0.355,0.283-0.632,0.476-0.801h0.735c0.162,0.299-0.334,0.753-0.917,0.991
				c0.551-0.203,1.159-0.192,1.288,0.104h-3.371c0-0.01,0.002-0.021,0.004-0.035c0.069-0.396,0.755-0.462,1.395-0.13
				c-0.265-0.178-0.478-0.621-0.396-0.933L351.073,121.037L351.073,121.037z M292.539,122.132c0.239-0.17,0.684-0.165,1.179-0.003
				L292.539,122.132L292.539,122.132z M295.247,122.132c0.434-0.763,1.151-1.071,1.571-0.773c0.336,0.243,0.293,0.521,0.039,0.776
				L295.247,122.132L295.247,122.132z M303.306,122.132c0.014-0.018,0.027-0.035,0.042-0.052c0,0,0.028,0.016,0.075,0.05
				L303.306,122.132L303.306,122.132z M305.277,122.132c-0.042-0.123-0.07-0.237-0.082-0.343c0.129,0.017,0.4,0.099,0.715,0.343
				H305.277L305.277,122.132z M310.146,122.132c0.211-0.216,0.502-0.427,0.802-0.486c0.014,0.164,0.003,0.329-0.033,0.491
				L310.146,122.132L310.146,122.132z"/>
		</defs>
		<clipPath id="SVGID_25_">
			<use xlink:href="#SVGID_24_"  overflow="visible"/>
		</clipPath>
		
			<rect x="285.557" y="119.952" transform="matrix(-0.9998 -0.0175 0.0175 -0.9998 639.4905 246.0692)" clip-path="url(#SVGID_25_)" fill="#00AC9F" width="70.527" height="0.577"/>
		
			<rect x="285.55" y="120.499" transform="matrix(-0.9998 -0.0174 0.0174 -0.9998 639.4683 247.1512)" clip-path="url(#SVGID_25_)" fill="#00ABA4" width="70.525" height="0.574"/>
		
			<rect x="285.539" y="121.041" transform="matrix(-0.9998 -0.0175 0.0175 -0.9998 639.4376 248.241)" clip-path="url(#SVGID_25_)" fill="#00ABAA" width="70.528" height="0.575"/>
		
			<rect x="285.529" y="121.587" transform="matrix(-0.9998 -0.0174 0.0174 -0.9998 639.4121 249.3228)" clip-path="url(#SVGID_25_)" fill="#00AAAF" width="70.528" height="0.574"/>
		
			<rect x="285.52" y="122.13" transform="matrix(-0.9998 -0.0175 0.0175 -0.9998 639.38 250.4174)" clip-path="url(#SVGID_25_)" fill="#00AAB5" width="70.527" height="0.574"/>
		
			<rect x="285.509" y="122.673" transform="matrix(-0.9998 -0.0175 0.0175 -0.9998 639.3478 251.5074)" clip-path="url(#SVGID_25_)" fill="#00A9BA" width="70.528" height="0.575"/>
	</g>
	<g>
		<defs>
			<path id="SVGID_26_" d="M290.229,120.491c-0.114,0.258-0.588,0.329-1.237,0.021c0.26,0.16,0.45,0.348,0.559,0.524h-0.816
				c-0.034-0.108-0.061-0.232-0.079-0.368c0.002,0.139-0.013,0.264-0.039,0.373l-0.894-0.005c0.104-0.159,0.301-0.34,0.621-0.533
				c-0.623,0.299-1.131,0.227-1.25-0.017L290.229,120.491L290.229,120.491z M302.52,120.491c-0.766,0.381-1.355,0.198-1.813,0.543
				l-0.582,0.003l-0.184-0.224c0,0,0.276-0.137,0.557-0.325L302.52,120.491L302.52,120.491z M313.745,120.491
				c-0.192,0.197-0.408,0.322-0.646,0.376c0.222,0.033,0.43,0.099,0.594,0.175l-2.775-0.005c-0.05-0.186-0.066-0.364-0.053-0.546
				H313.745L313.745,120.491z M315.75,120.491c0.125,0.062,0.26,0.178,0.331,0.371c0.042-0.122,0.113-0.217,0.144-0.371h0.018
				c0.137,0.175,0.267,0.355,0.381,0.549l-0.969-0.003c-0.007-0.161-0.031-0.341-0.08-0.546H315.75L315.75,120.491z
				 M324.006,120.491c0.174,0.156,0.365,0.348,0.512,0.546h-2.63c0.078-0.093,0.14-0.178,0.176-0.264
				c-0.068,0.071-0.168,0.124-0.285,0.163l0.08,0.101h-2.05c0.15-0.052,0.334-0.065,0.539-0.013
				c-0.24-0.142-0.293-0.354-0.276-0.533H324.006L324.006,120.491z M328.51,120.491c0.125,0.148,0.242,0.309,0.354,0.475
				c-0.055,0.02-0.104,0.043-0.146,0.068l-3.409,0.003c0.105-0.145,0.197-0.286,0.257-0.396c-0.416,0.037-0.917-0.024-1.381-0.148
				L328.51,120.491L328.51,120.491z M331.591,120.491c0.015,0.025,0.029,0.054,0.044,0.083c-0.004-0.026-0.008-0.055-0.01-0.081
				l1.137-0.002c0.021,0.09,0.041,0.182,0.059,0.279c0.027,0.131,0.076,0.22,0.133,0.267h-3.03c0.033-0.157,0.083-0.345,0.164-0.549
				L331.591,120.491L331.591,120.491z M334.238,120.491c-0.059,0.174-0.127,0.355-0.213,0.549l-0.87-0.003
				c0.064-0.056,0.119-0.161,0.148-0.321c0.011-0.066,0.031-0.146,0.057-0.229L334.238,120.491L334.238,120.491z M336.233,120.491
				c-0.133,0.203-0.286,0.387-0.438,0.545l-1.482,0.001c0.157-0.14,0.317-0.337,0.489-0.546H336.233L336.233,120.491z
				 M341.05,120.491c0.161,0.203,0.315,0.383,0.465,0.543l-0.68,0.003c-0.022-0.175-0.033-0.356-0.04-0.549L341.05,120.491
				L341.05,120.491z M294.03,121.037c0.076-0.134,0.211-0.227,0.414-0.26c0.223-0.034,0.454,0.058,0.612,0.263L294.03,121.037
				L294.03,121.037z M307.234,121.037c0.576-0.526,1.454-0.411,1.776-0.001L307.234,121.037L307.234,121.037z M310.007,121.037
				c0.051-0.032,0.105-0.062,0.162-0.088c0.01,0.029,0.016,0.06,0.021,0.093L310.007,121.037L310.007,121.037z M317.812,121.037
				c0.184-0.222,0.407-0.397,0.66-0.509c0.02,0.058,0.036,0.254,0.03,0.509H317.812L317.812,121.037z M344.327,121.037
				c-0.046-0.087-0.085-0.159-0.111-0.214c0.094,0.074,0.183,0.145,0.269,0.213L344.327,121.037L344.327,121.037z M350.28,121.037
				c0.033-0.134,0.121-0.241,0.279-0.294c0.196-0.068,0.413,0.034,0.514,0.291L350.28,121.037L350.28,121.037z M351.542,121.037
				c0.206-0.177,0.426-0.235,0.591-0.14c0.07,0.041,0.118,0.088,0.145,0.139L351.542,121.037L351.542,121.037z"/>
		</defs>
		<clipPath id="SVGID_27_">
			<use xlink:href="#SVGID_26_"  overflow="visible"/>
		</clipPath>
		
			<rect x="285.566" y="119.411" transform="matrix(-0.9998 -0.0174 0.0174 -0.9998 639.5225 244.9756)" clip-path="url(#SVGID_27_)" fill="#00AC99" width="70.528" height="0.574"/>
		
			<rect x="285.557" y="119.952" transform="matrix(-0.9998 -0.0175 0.0175 -0.9998 639.4905 246.0692)" clip-path="url(#SVGID_27_)" fill="#00AC9F" width="70.527" height="0.577"/>
		
			<rect x="285.55" y="120.499" transform="matrix(-0.9998 -0.0174 0.0174 -0.9998 639.4683 247.1512)" clip-path="url(#SVGID_27_)" fill="#00ABA4" width="70.525" height="0.574"/>
		
			<rect x="285.539" y="121.041" transform="matrix(-0.9998 -0.0175 0.0175 -0.9998 639.4376 248.241)" clip-path="url(#SVGID_27_)" fill="#00ABAA" width="70.528" height="0.575"/>
		
			<rect x="285.529" y="121.587" transform="matrix(-0.9998 -0.0174 0.0174 -0.9998 639.4121 249.3228)" clip-path="url(#SVGID_27_)" fill="#00AAAF" width="70.528" height="0.574"/>
	</g>
	<g>
		<defs>
			<path id="SVGID_28_" d="M288.542,119.393c0.08,0.158,0.129,0.366,0.121,0.627c0.014-0.256,0.082-0.469,0.178-0.629l0.831,0.002
				c0,0.248-0.307,0.569-0.694,0.773c0.545-0.261,1.227-0.27,1.276,0.147c0.008,0.066-0.001,0.125-0.025,0.178h-3.135
				c-0.013-0.033-0.023-0.066-0.025-0.1c-0.025-0.357,0.594-0.471,1.263-0.228c-0.278-0.135-0.569-0.495-0.577-0.775
				L288.542,119.393L288.542,119.393z M294.749,119.393c-0.136,0.508-0.471,0.69-0.661,0.586c-0.221-0.119-0.289-0.341-0.09-0.59
				L294.749,119.393L294.749,119.393z M295.362,119.393c0.219,0.347,0.217,0.679-0.018,0.764c-0.279,0.099-0.512-0.191-0.549-0.762
				L295.362,119.393L295.362,119.393z M303.794,119.393c-0.205,0.173-0.373,0.429-0.734,0.748c-0.19,0.151-0.37,0.265-0.54,0.351
				h-2.022c0.311-0.207,0.629-0.473,0.612-0.686c-0.021-0.259-1.104,0.072-2.194-0.411L303.794,119.393L303.794,119.393z
				 M312.418,119.393c0,0.064-0.004,0.132-0.01,0.188c0.025-0.063,0.059-0.126,0.094-0.187l0.375-0.002
				c-0.013,0.053-0.033,0.104-0.056,0.137c0.045-0.059,0.089-0.102,0.133-0.135l0.209-0.002c0,0.133-0.037,0.217-0.076,0.305
				c0.086-0.064,0.402-0.152,0.624-0.116c-0.38,0.289-0.348,0.739,0.203,0.701c-0.055,0.075-0.109,0.145-0.168,0.205l-2.881,0.004
				c0.016-0.209,0.069-0.42,0.147-0.639c0.075,0.027,0.145,0.32,0.174,0.417c0.07-0.352,0.193-0.586,0.293-0.655
				c0,0,0.162,0.147,0.213,0.496c0.043-0.223,0.111-0.492,0.26-0.716L312.418,119.393L312.418,119.393z M316.161,119.393
				c-0.336,0.25-0.69,0.322-0.922,0.226c-0.143-0.06-0.252-0.138-0.323-0.226H316.161L316.161,119.393z M318.462,119.393
				c-0.051,0.203-0.197,0.364-0.436,0.438c-0.418,0.131-0.76-0.031-0.945-0.435L318.462,119.393L318.462,119.393z M323.012,119.393
				c0,0,0,0.002,0.002,0.004c0-0.002,0-0.004,0-0.006l1.043,0.002c-0.07,0.116-0.144,0.222-0.22,0.31
				c1.249-0.29,1.997-0.03,2.088,0.349c0.176-0.235,0.382-0.412,0.667-0.461c0.785-0.121,1.412,0.296,1.918,0.901h-4.324
				c-0.092-0.023-0.182-0.051-0.27-0.08c0.029,0.025,0.059,0.052,0.09,0.08h-3.934c0.013-0.124,0.057-0.229,0.098-0.29
				c0.355-0.514,0.994-0.482,1.95-0.394c-0.175-0.115-0.328-0.261-0.449-0.419L323.012,119.393L323.012,119.393z M332.206,119.393
				c0.188,0.199,0.412,0.537,0.557,1.103l-1.137-0.004c-0.038-0.407,0.043-0.822,0.164-1.097L332.206,119.393L332.206,119.393z
				 M334.465,119.393c-0.02,0.318-0.086,0.679-0.227,1.103l-0.877-0.004c0.094-0.325,0.279-0.755,0.527-1.099H334.465
				L334.465,119.393z M315.574,120.491c-0.004-0.02-0.008-0.039-0.014-0.06c0.053,0.007,0.119,0.023,0.189,0.06H315.574
				L315.574,120.491z M316.225,120.491c0.002-0.006,0.002-0.012,0.004-0.016c0.003,0.004,0.008,0.012,0.014,0.018L316.225,120.491
				L316.225,120.491z M330.087,120.491c0.131-0.335,0.342-0.712,0.678-1.069c0.259,0.123,0.474,0.37,0.826,1.065L330.087,120.491
				L330.087,120.491z M334.803,120.491c0.395-0.484,0.842-1.038,1.415-1.093c-0.379,0.069-0.607,0.636,0.217,0.724
				c-0.059,0.129-0.127,0.249-0.201,0.365L334.803,120.491L334.803,120.491z M340.796,120.491c-0.001-0.111-0.001-0.225,0.002-0.341
				c0.087,0.119,0.17,0.232,0.252,0.338L340.796,120.491L340.796,120.491z"/>
		</defs>
		<clipPath id="SVGID_29_">
			<use xlink:href="#SVGID_28_"  overflow="visible"/>
		</clipPath>
		
			<rect x="285.585" y="118.322" transform="matrix(-0.9998 -0.0174 0.0174 -0.9998 639.5796 242.7984)" clip-path="url(#SVGID_29_)" fill="#00AD8E" width="70.528" height="0.574"/>
		
			<rect x="285.576" y="118.868" transform="matrix(-0.9998 -0.0175 0.0175 -0.9998 639.5498 243.8934)" clip-path="url(#SVGID_29_)" fill="#00AD94" width="70.528" height="0.574"/>
		
			<rect x="285.566" y="119.411" transform="matrix(-0.9998 -0.0174 0.0174 -0.9998 639.5225 244.9756)" clip-path="url(#SVGID_29_)" fill="#00AC99" width="70.528" height="0.574"/>
		
			<rect x="285.557" y="119.952" transform="matrix(-0.9998 -0.0175 0.0175 -0.9998 639.4905 246.0692)" clip-path="url(#SVGID_29_)" fill="#00AC9F" width="70.527" height="0.577"/>
		
			<rect x="285.55" y="120.499" transform="matrix(-0.9998 -0.0174 0.0174 -0.9998 639.4683 247.1512)" clip-path="url(#SVGID_29_)" fill="#00ABA4" width="70.525" height="0.574"/>
		
			<rect x="285.539" y="121.041" transform="matrix(-0.9998 -0.0175 0.0175 -0.9998 639.4376 248.241)" clip-path="url(#SVGID_29_)" fill="#00ABAA" width="70.528" height="0.575"/>
	</g>
	<g>
		<defs>
			<path id="SVGID_30_" d="M294.905,118.303c0,0.083-0.007,0.176-0.023,0.273c0.02-0.098,0.045-0.19,0.076-0.273h0.745
				c-0.113,0.174-0.336,0.34-0.584,0.444c0.477-0.177,1.032-0.106,1.016,0.28c-0.014,0.361-0.463,0.466-1.049,0.037
				c0.115,0.105,0.207,0.219,0.277,0.328h-0.567c-0.003-0.068-0.005-0.144-0.003-0.223c-0.01,0.079-0.026,0.153-0.043,0.219
				l-0.751,0.004c0.106-0.134,0.288-0.272,0.563-0.406c-0.611,0.225-1.043,0.039-1.021-0.252c0.025-0.331,0.543-0.362,1.053-0.063
				c-0.107-0.08-0.21-0.219-0.281-0.369H294.905L294.905,118.303z M300.576,118.303c0.256,0.058,0.52,0.163,0.82,0.382
				c-0.025-0.132-0.07-0.26-0.132-0.384l1.073,0.002c0.013,0.174-0.004,0.379-0.042,0.627c-0.131,0.871,1.037-0.469,2.054,0.242
				c-0.252,0.029-0.413,0.107-0.555,0.225l-4.879-0.004c-0.444-0.194-0.889-0.527-1.265-1.09H300.576L300.576,118.303z
				 M309.344,118.303c-0.054,0.315-0.234,0.511-0.434,0.523c-0.337,0.027-0.59-0.146-0.607-0.522L309.344,118.303L309.344,118.303z
				 M316.905,118.303c-0.168,0.502-0.45,0.864-0.745,1.086l-1.246,0.004c-0.21-0.271-0.076-0.664,0.573-1.09H316.905
				L316.905,118.303z M318.069,118.303c0.337,0.385,0.466,0.786,0.393,1.086l-1.381,0.004c-0.122-0.262-0.176-0.63-0.139-1.09
				H318.069L318.069,118.303z M319.441,118.303c-0.213,0.058-0.477,0.061-0.776,0.003L319.441,118.303L319.441,118.303z
				 M322.46,118.303c0.229,0.262,0.434,0.632,0.551,1.086l-1.341,0.004c-0.277-0.359-0.414-0.785-0.379-1.094L322.46,118.303
				L322.46,118.303z M324.448,118.303c-0.036,0.341-0.195,0.76-0.392,1.086l-1.043,0.004c0.044-0.42,0.166-0.799,0.328-1.092
				L324.448,118.303L324.448,118.303z M336.079,118.303c-0.108,0.41-0.385,0.657-0.752,0.608c-0.344-0.044-0.543-0.265-0.571-0.612
				L336.079,118.303L336.079,118.303z M351.824,118.303c0.066,0.047,0.126,0.107,0.186,0.182c-0.553-0.099-0.696,0.191-1.358,0.49
				c-1.321,0.535-1.848-0.298-2.597,0.369l-0.247-0.607c0,0,0.924-0.154,1.194-0.438L351.824,118.303L351.824,118.303z
				 M287.755,119.393c-0.001-0.131,0.053-0.239,0.193-0.303c0.188-0.084,0.446,0.018,0.594,0.307L287.755,119.393L287.755,119.393z
				 M288.841,119.393c0.157-0.259,0.391-0.375,0.6-0.288c0.16,0.065,0.229,0.17,0.231,0.284L288.841,119.393L288.841,119.393z
				 M311.951,119.393c0.094-0.137,0.219-0.256,0.389-0.336c0.053,0.059,0.074,0.195,0.079,0.336H311.951L311.951,119.393z
				 M312.502,119.393c0.105-0.177,0.246-0.33,0.381-0.378c0.031,0.083,0.025,0.247-0.006,0.374L312.502,119.393L312.502,119.393z
				 M312.954,119.393c0.111-0.082,0.201-0.095,0.201-0.095c0.006,0.033,0.008,0.064,0.008,0.095H312.954L312.954,119.393z
				 M331.789,119.393c0.045-0.1,0.097-0.182,0.149-0.236c0.06,0.044,0.156,0.115,0.267,0.232L331.789,119.393L331.789,119.393z
				 M333.888,119.393c0.166-0.232,0.359-0.425,0.575-0.52c0.011,0.162,0.014,0.332,0.002,0.516L333.888,119.393L333.888,119.393z"/>
		</defs>
		<clipPath id="SVGID_31_">
			<use xlink:href="#SVGID_30_"  overflow="visible"/>
		</clipPath>
		
			<rect x="285.607" y="117.235" transform="matrix(-0.9998 -0.0174 0.0174 -0.9998 639.639 240.6253)" clip-path="url(#SVGID_31_)" fill="#00AE83" width="70.525" height="0.574"/>
		
			<rect x="285.596" y="117.778" transform="matrix(-0.9998 -0.0175 0.0175 -0.9998 639.6066 241.7197)" clip-path="url(#SVGID_31_)" fill="#00AD88" width="70.527" height="0.574"/>
		
			<rect x="285.585" y="118.322" transform="matrix(-0.9998 -0.0174 0.0174 -0.9998 639.5796 242.7984)" clip-path="url(#SVGID_31_)" fill="#00AD8E" width="70.528" height="0.574"/>
		
			<rect x="285.576" y="118.868" transform="matrix(-0.9998 -0.0175 0.0175 -0.9998 639.5498 243.8934)" clip-path="url(#SVGID_31_)" fill="#00AD94" width="70.528" height="0.574"/>
		
			<rect x="285.566" y="119.411" transform="matrix(-0.9998 -0.0174 0.0174 -0.9998 639.5225 244.9756)" clip-path="url(#SVGID_31_)" fill="#00AC99" width="70.528" height="0.574"/>
		
			<rect x="285.557" y="119.952" transform="matrix(-0.9998 -0.0175 0.0175 -0.9998 639.4905 246.0692)" clip-path="url(#SVGID_31_)" fill="#00AC9F" width="70.527" height="0.577"/>
	</g>
	<g>
		<defs>
			<path id="SVGID_32_" d="M307.462,116.661c0.403,0.127,0.61,0.357,0.473,0.55c-0.199,0.283-0.716,0.16-1.249-0.386
				c0.436,0.559,0.264,0.994-0.019,1.042c-0.447,0.074-0.751-0.255-0.329-1.035c-0.381,0.549-0.913,0.681-1.112,0.45
				c-0.184-0.208,0.068-0.476,0.532-0.621H307.462L307.462,116.661z M310.472,116.661c-0.235,0.127-0.588,0.199-1.05,0.174
				c0.969,0.164,1.538,0.777,1.237,1.175c-0.309,0.404-0.948,0.13-1.523-0.799c0.209,0.436,0.254,0.81,0.208,1.088l-1.041,0.004
				c-0.014-0.272,0.095-0.649,0.387-1.136c-0.594,0.796-1.298,0.917-1.509,0.526c-0.242-0.44,0.391-0.91,1.29-0.952
				c-0.107-0.007-0.227-0.035-0.345-0.079L310.472,116.661L310.472,116.661z M317.36,116.661c-0.018,0.119-0.047,0.246-0.09,0.381
				c0.047-0.137,0.1-0.267,0.162-0.385l1.55,0.004c-0.301,0.257-0.74,0.498-1.211,0.666c1.1-0.354,2.331-0.273,2.227,0.42
				c-0.039,0.272-0.242,0.469-0.557,0.554l-0.776,0.002c-0.312-0.059-0.66-0.189-1.027-0.403c0.17,0.129,0.314,0.265,0.432,0.401
				l-1.127,0.002c0.003-0.062,0.01-0.125,0.02-0.191c-0.018,0.064-0.035,0.127-0.056,0.188l-1.417,0.004
				c0.25-0.167,0.576-0.335,0.989-0.502c-1.413,0.453-2.345,0.153-2.244-0.368c0.116-0.594,1.284-0.691,2.373-0.196
				c-0.211-0.128-0.405-0.341-0.536-0.579L317.36,116.661L317.36,116.661z M337.152,116.661c0.667,0.253,1.092,0.684,0.79,1.125
				c-0.387,0.566-1.34,0.347-2.011-0.848c0.213,0.52,0.245,1.005,0.149,1.364h-1.323c-0.027-0.366,0.135-0.868,0.518-1.447
				c-0.844,1.01-1.849,1.063-2.136,0.69c-0.243-0.316-0.221-0.652,0.136-0.885H337.152L337.152,116.661z M343.127,116.661
				c-0.176,0.509-0.547,0.704-0.737,0.614c-0.238-0.114-0.276-0.349,0.027-0.616L343.127,116.661L343.127,116.661z M343.733,116.661
				c0.206,0.317,0.178,0.635-0.07,0.726c-0.303,0.107-0.52-0.169-0.498-0.729L343.733,116.661L343.733,116.661z M348.812,116.661
				c0.275,0.116,0.534,0.286,0.797,0.633c0.023-0.204-0.014-0.422-0.082-0.635l0.924,0.002c0.167,0.3,0.088,0.605-0.136,1.079
				c-0.313,0.653,0.795,0,1.509,0.559l-2.822,0.004c0.035-0.041,0.061-0.082,0.068-0.123c0.061-0.278-1.48-0.216-2.271-1.522
				L348.812,116.661L348.812,116.661z M294.312,118.303c-0.125-0.268-0.143-0.573,0.111-0.659c0.213-0.069,0.482,0.16,0.482,0.659
				H294.312L294.312,118.303z M294.958,118.303c0.159-0.42,0.457-0.613,0.672-0.476c0.192,0.125,0.188,0.304,0.072,0.479
				L294.958,118.303L294.958,118.303z M297.651,118.303c-0.16-0.238-0.307-0.521-0.434-0.851c1.735,1.067,2.503,0.665,3.359,0.852
				L297.651,118.303L297.651,118.303z M301.264,118.303c-0.338-0.672-1.141-1.231-1.347-1.416c1.821,0.491,2.368,0.713,2.42,1.414
				L301.264,118.303L301.264,118.303z M321.292,118.303c0.018-0.17,0.084-0.304,0.205-0.373c0.254-0.149,0.635,0,0.963,0.374
				L321.292,118.303L321.292,118.303z M323.342,118.303c0.237-0.433,0.561-0.677,0.862-0.587c0.215,0.064,0.276,0.297,0.245,0.59
				L323.342,118.303L323.342,118.303z"/>
		</defs>
		<clipPath id="SVGID_33_">
			<use xlink:href="#SVGID_32_"  overflow="visible"/>
		</clipPath>
		
			<rect x="285.632" y="115.604" transform="matrix(-0.9998 -0.0174 0.0174 -0.9998 639.7251 237.3533)" clip-path="url(#SVGID_33_)" fill="#21AF71" width="70.528" height="0.572"/>
		
			<rect x="285.622" y="116.145" transform="matrix(-0.9998 -0.0175 0.0175 -0.9998 639.6893 238.4566)" clip-path="url(#SVGID_33_)" fill="#10AF77" width="70.528" height="0.576"/>
		
			<rect x="285.615" y="116.692" transform="matrix(-0.9998 -0.0174 0.0174 -0.9998 639.6693 239.5341)" clip-path="url(#SVGID_33_)" fill="#00AE7D" width="70.526" height="0.574"/>
		
			<rect x="285.607" y="117.235" transform="matrix(-0.9998 -0.0174 0.0174 -0.9998 639.639 240.6253)" clip-path="url(#SVGID_33_)" fill="#00AE83" width="70.525" height="0.574"/>
		
			<rect x="285.596" y="117.778" transform="matrix(-0.9998 -0.0175 0.0175 -0.9998 639.6066 241.7197)" clip-path="url(#SVGID_33_)" fill="#00AD88" width="70.527" height="0.574"/>
		
			<rect x="285.585" y="118.322" transform="matrix(-0.9998 -0.0174 0.0174 -0.9998 639.5796 242.7984)" clip-path="url(#SVGID_33_)" fill="#00AD8E" width="70.528" height="0.574"/>
		
			<rect x="285.576" y="118.868" transform="matrix(-0.9998 -0.0175 0.0175 -0.9998 639.5498 243.8934)" clip-path="url(#SVGID_33_)" fill="#00AD94" width="70.528" height="0.574"/>
	</g>
	<g>
		<defs>
			<path id="SVGID_34_" d="M309.508,115.018c0.176,0.31,0.021,0.904-0.305,1.384c0.461-0.62,1.225-0.989,1.528-0.484
				c0.164,0.275,0.066,0.562-0.26,0.74l-2.347,0.004c-0.517-0.189-1.042-0.687-0.724-1.089c0.249-0.312,0.938-0.162,1.358,0.807
				c-0.236-0.578-0.214-1.085-0.037-1.359L309.508,115.018L309.508,115.018z M326.783,115.018c0.182,0.418,0.411,0.964,0.618,1.532
				c-1.474-1.122-3.182-1.949-3.741-1.276c-0.251,0.342-0.182,1.1-0.182,1.1l-1.815-0.827c0,0,0.395-0.238,0.643-0.525
				L326.783,115.018L326.783,115.018z M334.436,115.018c0.334,0.174,0.682,0.472,0.965,0.867c-0.127-0.23-0.184-0.555-0.158-0.864
				l1.352-0.003c-0.064,0.281-0.236,0.609-0.557,0.964c0.822-0.868,1.845-1.042,2.159-0.554c0.469,0.725-0.733,1.128-1.886,1.031
				c0.298,0.035,0.586,0.106,0.841,0.203l-3.877-0.001c0.313-0.203,0.88-0.33,1.751-0.301c-1.377-0.167-2-0.837-1.668-1.282
				c0.016-0.021,0.031-0.039,0.047-0.058L334.436,115.018L334.436,115.018z M305.759,116.661c0.113-0.035,0.236-0.064,0.371-0.084
				c-0.443,0.023-1.188-0.312-0.932-0.655c0.161-0.219,0.706-0.177,1.122,0.404c-0.355-0.52-0.25-0.988,0.109-1.025
				c0.53-0.053,0.527,0.536,0.232,1.006c0.297-0.43,0.851-0.725,1.132-0.427c0.262,0.279-0.067,0.637-0.921,0.684
				c0.223,0.009,0.424,0.045,0.59,0.098H305.759L305.759,116.661z M316.07,116.661c-0.261-0.486-0.269-1.071,0.336-1.251
				c0.512-0.149,1.102,0.279,0.954,1.251H316.07L316.07,116.661z M317.432,116.661c0.424-0.842,1.175-1.263,1.654-1.019
				s0.336,0.646-0.104,1.019H317.432L317.432,116.661z M342.418,116.661c0.121-0.109,0.297-0.221,0.538-0.335
				c-0.645,0.239-1.069,0.083-1.023-0.189c0.054-0.308,0.585-0.358,1.082-0.104c-0.291-0.196-0.504-0.809-0.09-0.949
				c0.262-0.089,0.569,0.204,0.393,0.85c0.168-0.568,0.578-0.873,0.828-0.728c0.37,0.214-0.07,0.66-0.6,0.877
				c0.502-0.184,1.063-0.144,1.016,0.219c-0.042,0.338-0.514,0.453-1.076,0.077c0.104,0.091,0.186,0.187,0.248,0.282h-0.568
				c0-0.057,0.005-0.111,0.011-0.17c-0.014,0.059-0.029,0.114-0.049,0.168L342.418,116.661L342.418,116.661z M346.799,116.661
				c-0.228-0.38-0.396-0.867-0.443-1.513c1.092,1.237,1.819,1.237,2.456,1.511L346.799,116.661L346.799,116.661z M349.527,116.661
				c-0.186-0.571-0.603-1.108-0.713-1.292c0.95,0.597,1.45,0.941,1.637,1.288L349.527,116.661L349.527,116.661z"/>
		</defs>
		<clipPath id="SVGID_35_">
			<use xlink:href="#SVGID_34_"  overflow="visible"/>
		</clipPath>
		
			<rect x="285.672" y="113.427" transform="matrix(-0.9998 -0.0174 0.0174 -0.9998 639.8378 233.0097)" clip-path="url(#SVGID_35_)" fill="#40B159" width="70.527" height="0.574"/>
		
			<rect x="285.661" y="113.972" transform="matrix(-0.9998 -0.0174 0.0174 -0.9998 639.8116 234.0904)" clip-path="url(#SVGID_35_)" fill="#3AB15F" width="70.528" height="0.574"/>
		
			<rect x="285.652" y="114.516" transform="matrix(-0.9998 -0.0174 0.0174 -0.9998 639.7798 235.1869)" clip-path="url(#SVGID_35_)" fill="#33B065" width="70.528" height="0.574"/>
		
			<rect x="285.642" y="115.058" transform="matrix(-0.9998 -0.0175 0.0175 -0.9998 639.7491 236.2769)" clip-path="url(#SVGID_35_)" fill="#2BB06B" width="70.528" height="0.575"/>
		
			<rect x="285.632" y="115.604" transform="matrix(-0.9998 -0.0174 0.0174 -0.9998 639.7251 237.3533)" clip-path="url(#SVGID_35_)" fill="#21AF71" width="70.528" height="0.572"/>
		
			<rect x="285.622" y="116.145" transform="matrix(-0.9998 -0.0175 0.0175 -0.9998 639.6893 238.4566)" clip-path="url(#SVGID_35_)" fill="#10AF77" width="70.528" height="0.576"/>
		
			<rect x="285.615" y="116.692" transform="matrix(-0.9998 -0.0174 0.0174 -0.9998 639.6693 239.5341)" clip-path="url(#SVGID_35_)" fill="#00AE7D" width="70.526" height="0.574"/>
		
			<rect x="285.607" y="117.235" transform="matrix(-0.9998 -0.0174 0.0174 -0.9998 639.639 240.6253)" clip-path="url(#SVGID_35_)" fill="#00AE83" width="70.525" height="0.574"/>
	</g>
	<g>
		<defs>
			<path id="SVGID_36_" d="M314.902,113.376c0.005,0.058,0.008,0.114,0.009,0.176c-0.033-0.062-0.068-0.118-0.107-0.178
				L314.902,113.376L314.902,113.376z M322.852,113.376c0.117,0.116,0.222,0.212,0.313,0.259c0.029-0.069,0.127-0.163,0.237-0.257
				l0.467-0.002l0.042,0.512c0.352,0.268,1.837-0.291,2.523,0.371c0,0,0.146,0.301,0.349,0.762l-4.477-0.003
				c0.143-0.162,0.237-0.344,0.176-0.505c-0.17-0.447-0.829-0.837-1.529-1.135L322.852,113.376L322.852,113.376z M328.581,113.376
				c-0.157,0.123-0.241,0.262-0.221,0.414c0.043,0.249,0.407,0.543,0.407,0.543l-1.133,0.392c0,0,0.127-0.607-0.107-0.775
				c-0.271-0.198-2.255,0.67-2.255,0.67c0.355-0.554,0.529-1.141,0.529-1.141c0.051-0.044,0.109-0.078,0.174-0.104L328.581,113.376
				L328.581,113.376z M308.723,115.018c0.09-0.134,0.217-0.211,0.373-0.211c0.204,0,0.339,0.08,0.413,0.211H308.723L308.723,115.018
				z M333.404,115.018c0.227-0.229,0.62-0.209,1.032,0.002L333.404,115.018L333.404,115.018z M335.243,115.018
				c0.041-0.524,0.316-1.007,0.866-0.927c0.357,0.051,0.602,0.408,0.486,0.925L335.243,115.018L335.243,115.018z"/>
		</defs>
		<clipPath id="SVGID_37_">
			<use xlink:href="#SVGID_36_"  overflow="visible"/>
		</clipPath>
		
			<rect x="285.69" y="112.339" transform="matrix(-0.9998 -0.0175 0.0175 -0.9998 639.8878 230.853)" clip-path="url(#SVGID_37_)" fill="#4AB34D" width="70.527" height="0.575"/>
		
			<rect x="285.682" y="112.884" transform="matrix(-0.9998 -0.0174 0.0174 -0.9998 639.8694 231.9206)" clip-path="url(#SVGID_37_)" fill="#45B253" width="70.527" height="0.574"/>
		
			<rect x="285.672" y="113.427" transform="matrix(-0.9998 -0.0174 0.0174 -0.9998 639.8378 233.0097)" clip-path="url(#SVGID_37_)" fill="#40B159" width="70.527" height="0.574"/>
		
			<rect x="285.661" y="113.972" transform="matrix(-0.9998 -0.0174 0.0174 -0.9998 639.8116 234.0904)" clip-path="url(#SVGID_37_)" fill="#3AB15F" width="70.528" height="0.574"/>
		
			<rect x="285.652" y="114.516" transform="matrix(-0.9998 -0.0174 0.0174 -0.9998 639.7798 235.1869)" clip-path="url(#SVGID_37_)" fill="#33B065" width="70.528" height="0.574"/>
		
			<rect x="285.642" y="115.058" transform="matrix(-0.9998 -0.0175 0.0175 -0.9998 639.7491 236.2769)" clip-path="url(#SVGID_37_)" fill="#2BB06B" width="70.528" height="0.575"/>
		
			<rect x="285.632" y="115.604" transform="matrix(-0.9998 -0.0174 0.0174 -0.9998 639.7251 237.3533)" clip-path="url(#SVGID_37_)" fill="#21AF71" width="70.528" height="0.572"/>
	</g>
	<g>
		<defs>
			<path id="SVGID_38_" d="M299.511,111.735c-0.043,0.03-0.092,0.062-0.146,0.093c0,0-0.051-0.028-0.104-0.093H299.511
				L299.511,111.735z M314.322,111.735c0.15,0.168,0.508,0.657,0.581,1.641h-0.098c-0.704-1.048-2.288-1.653-2.828-1.247
				c-0.266,0.199-0.107,0.856-0.107,0.856c-0.35-0.385-0.877-0.662-1.366-0.788c0,0,0.485-0.193,0.637-0.467L314.322,111.735
				L314.322,111.735z M335.381,111.735c-0.018,0.619-0.376,0.997-0.709,0.825c-0.286-0.146-0.276-0.469,0.047-0.824L335.381,111.735
				L335.381,111.735z M336.124,111.735c0.285,0.263,0.41,0.562,0.172,0.731c-0.303,0.217-0.738-0.044-0.892-0.729L336.124,111.735
				L336.124,111.735z M320.954,113.376c-0.938-0.398-1.952-0.638-1.952-0.638c1.094-0.242,2.018-0.736,2.018-0.736
				c0.716,0.043,1.368,0.907,1.832,1.374H320.954L320.954,113.376z M323.401,113.376c0.197-0.161,0.441-0.322,0.441-0.322
				l0.025,0.322H323.401L323.401,113.376z M325.974,113.376c0.453-0.186,1.198-0.008,1.454-0.081
				c-0.049-0.116,0.032-0.524,0.032-0.524l0.394,0.326c0.27-0.029,0.652-0.876,1.235-0.876c0,0,0.801,0.449,1.418,0.581
				c-0.787,0.088-1.559,0.284-1.926,0.574H325.974L325.974,113.376z"/>
		</defs>
		<clipPath id="SVGID_39_">
			<use xlink:href="#SVGID_38_"  overflow="visible"/>
		</clipPath>
		
			<rect x="285.719" y="110.71" transform="matrix(-0.9998 -0.0174 0.0174 -0.9998 639.9822 227.5666)" clip-path="url(#SVGID_39_)" fill="#58B437" width="70.527" height="0.572"/>
		
			<rect x="285.708" y="111.251" transform="matrix(-0.9998 -0.0175 0.0175 -0.9998 639.9468 228.6688)" clip-path="url(#SVGID_39_)" fill="#54B43F" width="70.528" height="0.575"/>
		
			<rect x="285.698" y="111.795" transform="matrix(-0.9998 -0.0175 0.0175 -0.9998 639.9194 229.7521)" clip-path="url(#SVGID_39_)" fill="#4FB346" width="70.528" height="0.574"/>
		
			<rect x="285.69" y="112.339" transform="matrix(-0.9998 -0.0175 0.0175 -0.9998 639.8878 230.853)" clip-path="url(#SVGID_39_)" fill="#4AB34D" width="70.527" height="0.575"/>
		
			<rect x="285.682" y="112.884" transform="matrix(-0.9998 -0.0174 0.0174 -0.9998 639.8694 231.9206)" clip-path="url(#SVGID_39_)" fill="#45B253" width="70.527" height="0.574"/>
		
			<rect x="285.672" y="113.427" transform="matrix(-0.9998 -0.0174 0.0174 -0.9998 639.8378 233.0097)" clip-path="url(#SVGID_39_)" fill="#40B159" width="70.527" height="0.574"/>
		
			<rect x="285.661" y="113.972" transform="matrix(-0.9998 -0.0174 0.0174 -0.9998 639.8116 234.0904)" clip-path="url(#SVGID_39_)" fill="#3AB15F" width="70.528" height="0.574"/>
	</g>
	<g>
		<defs>
			<path id="SVGID_40_" d="M299.261,111.735c-0.125-0.149-0.268-0.49,0.13-1.126c0,0-0.783,0.867-1.317,0.673
				c0,0-0.035-0.481,1.14-0.938c0,0-0.905,0.052-1.104-0.509c0,0,0.439-0.522,1.313,0.145c0,0-0.506-0.896,0.299-1.555
				c0,0,0.54,0.491,0.105,1.456c0.096-0.06,0.524-0.596,1.331-0.693c0,0-0.241,0.748-1.084,0.973c0,0,0.752,0.057,0.99,0.664
				c0,0-0.594,0.511-1.311-0.327c0,0,0.415,0.742-0.242,1.234L299.261,111.735L299.261,111.735z M311.14,111.735
				c0.035-0.066,0.053-0.134,0.041-0.204c-0.08-0.533-1.42-1.534-2.585-1.606c1.155-0.613,1.69-0.359,1.69-0.359
				c0.792,0.171,1.104,1.507,1.524,1.376c0.226-0.12,0.601-0.436,0.601-0.436l-0.117,0.697c0.037,0.427,1.459-0.111,1.962,0.468
				c0,0,0.025,0.021,0.066,0.065L311.14,111.735L311.14,111.735z M334.719,111.735c0.086-0.093,0.195-0.19,0.326-0.289
				c-0.65,0.378-1.2,0.21-1.279-0.046c-0.129-0.404,0.25-0.668,1.244-0.268c-0.707-0.358-0.913-0.84-0.645-1.015
				c0.301-0.197,0.765,0.211,0.938,0.832c-0.063-0.399,0.288-1.062,0.73-0.824c0.282,0.153,0.274,0.644-0.408,1.002
				c0.612-0.307,1.194-0.198,1.268,0.126c0.109,0.479-0.613,0.461-1.213,0.184c0.166,0.084,0.319,0.189,0.444,0.301l-0.72-0.003
				c-0.009-0.033-0.016-0.075-0.023-0.113c0.002,0.038,0.002,0.077,0,0.114L334.719,111.735L334.719,111.735z M322.441,106.376
				c0.152-0.592,0.65-0.895,0.991-0.732c0.502,0.243-0.016,0.694-0.679,0.899c0.631-0.172,1.364-0.104,1.345,0.273
				c-0.018,0.353-0.614,0.457-1.387,0.037c0.627,0.428,0.752,0.958,0.344,1.066c-0.417,0.111-0.752-0.261-0.733-0.963
				c-0.114,0.661-0.644,0.906-0.93,0.791c-0.447-0.18-0.42-0.595,0.625-0.973c-0.809,0.222-1.379,0.041-1.35-0.245
				c0.033-0.322,0.719-0.354,1.393-0.062c-0.401-0.219-0.749-0.873-0.227-1.005C322.162,105.382,322.593,105.704,322.441,106.376
				L322.441,106.376z"/>
		</defs>
		<clipPath id="SVGID_41_">
			<use xlink:href="#SVGID_40_"  overflow="visible"/>
		</clipPath>
		
			<rect x="285.773" y="105.295" transform="matrix(-0.9998 -0.0175 0.0175 -0.9998 640.1918 221.3526)" clip-path="url(#SVGID_41_)" fill="#5CB531" width="70.579" height="5.174"/>
		
			<rect x="285.728" y="110.164" transform="matrix(-0.9998 -0.0175 0.0175 -0.9998 640.0064 226.4892)" clip-path="url(#SVGID_41_)" fill="#5CB531" width="70.527" height="0.574"/>
		
			<rect x="285.719" y="110.71" transform="matrix(-0.9998 -0.0174 0.0174 -0.9998 639.9822 227.5666)" clip-path="url(#SVGID_41_)" fill="#58B437" width="70.527" height="0.572"/>
		
			<rect x="285.708" y="111.251" transform="matrix(-0.9998 -0.0175 0.0175 -0.9998 639.9468 228.6688)" clip-path="url(#SVGID_41_)" fill="#54B43F" width="70.528" height="0.575"/>
		
			<rect x="285.698" y="111.795" transform="matrix(-0.9998 -0.0175 0.0175 -0.9998 639.9194 229.7521)" clip-path="url(#SVGID_41_)" fill="#4FB346" width="70.528" height="0.574"/>
		
			<rect x="285.69" y="112.339" transform="matrix(-0.9998 -0.0175 0.0175 -0.9998 639.8878 230.853)" clip-path="url(#SVGID_41_)" fill="#4AB34D" width="70.527" height="0.575"/>
	</g>
	<path fill-rule="evenodd" clip-rule="evenodd" fill="#727171" d="M320.225,162.225c0,1.862-0.854,3.829-2.943,3.829
		c-2.333,0-3.152-1.967-3.152-3.829c0-1.866,0.818-3.833,3.152-3.833C319.371,158.392,320.225,160.358,320.225,162.225
		L320.225,162.225z M313.034,166.716h1.008v-1.705h0.035c0.506,1.217,1.759,1.968,3.205,1.968c2.733,0,4.041-2.213,4.041-4.754
		c0-2.543-1.307-4.755-4.041-4.755c-1.34,0-2.648,0.679-3.117,1.967h-0.035v-5.154h-1.097V166.716L313.034,166.716z"/>
	<path fill-rule="evenodd" clip-rule="evenodd" fill="#727171" d="M328.755,163.234c0,1.438-1.185,2.744-3.115,2.744
		c-1.028,0-2.022-0.64-2.022-1.701c0-2.1,1.644-2.251,3.507-2.581c0.61-0.107,1.468-0.408,1.556-0.548h0.035L328.755,163.234
		L328.755,163.234z M323.092,159.071c0,0,1.495-0.613,3.293-0.613c1.287,0,2.231,0.387,2.231,1.248c0,0.635-0.661,0.875-2.779,1.184
		c-1.966,0.286-3.399,1.116-3.399,3.177c0,1.811,1.44,2.912,3.096,2.912c1.724,0,2.636-0.76,3.274-1.83l-0.002,1.567h1.05
		l-0.003-6.357c0-2.403-1.725-2.889-3.31-2.889c-2.095,0-3.432,0.65-3.432,0.65L323.092,159.071L323.092,159.071z"/>
	<path fill="#727171" d="M293.332,166.716h1.986v-5.311c0-1.325,0.852-2.368,2.177-2.368c1.167,0,1.724,0.608,1.759,2.02v5.659
		h1.985v-6.182c0-2.021-1.237-3.064-3.188-3.064c-1.184,0-2.096,0.404-2.7,1.09h-0.033v-4.277h-1.986V166.716L293.332,166.716z"/>
	<polygon fill="#727171" points="303.285,159.281 308.158,159.281 303.177,165.323 303.177,166.716 311.102,166.716 
		311.102,165.148 305.844,165.148 310.839,159.107 310.839,157.714 303.285,157.714 303.285,159.281 	"/>
	<path fill="#727171" d="M331.629,166.716h1.098v-5.242c0.035-1.759,1.079-3.082,2.822-3.082c1.775,0,2.28,1.167,2.28,2.717v5.607
		h1.096v-5.782c0-2.142-0.766-3.464-3.291-3.464c-1.271,0-2.472,0.73-2.873,1.812h-0.035v-1.552h-1.098V166.716L331.629,166.716z"/>
	<polygon fill="#727171" points="340.618,166.716 341.715,166.716 341.715,163.302 343.491,161.823 347.044,166.716 
		348.419,166.716 344.327,161.057 348.16,157.729 346.696,157.729 341.715,162.083 341.715,154.282 340.618,154.282 
		340.618,166.716 	"/>
	<polygon fill="#727171" points="409.674,143.572 405.928,143.572 407.29,131.602 410.997,131.602 409.674,143.572 	"/>
	<path fill="#727171" d="M411.573,125.408h3.883v6.193h3.163l1.676,8.585v-14.778h3.885v6.193h3.27l2.169,8.662v-14.855h4.027
		v27.065h-4.027v-8.707h-3.271l-2.167-8.715v17.422h-3.885v-8.707h-3.158l-1.667-8.468l-0.014,5.783
		c0,3.465-0.855,8.682-3.658,11.392H407.7l0.272-0.316c2.351-3.022,3.601-6.603,3.601-10.438V125.408L411.573,125.408z"/>
	<polygon fill="#727171" points="379.347,143.33 378.034,139.603 378.034,152.474 374.082,152.474 374.083,139.214 371.318,148.102 
		368.06,148.102 372.885,132.143 368.861,132.143 368.861,129.469 374.083,129.469 374.082,125.393 378.034,125.393 
		378.034,129.469 380.846,129.469 380.846,132.143 378.603,132.143 382.72,143.362 379.347,143.33 	"/>
	<path fill="#727171" d="M383.857,136.059c0-2.133,0.465-2.977,2.112-2.977h8.595c1.733,0,2.188,0.938,2.188,2.642v14.197h1.785
		v2.553h-3.489c-1.629,0-2.329-0.563-2.329-2.532l-0.008-14.472l-4.932-0.014v9.169c0,2.352-0.487,5.855-2.132,7.849h-3.987
		l0.168-0.247c1.286-2.097,2.028-4.565,2.028-7.031v-2.022V136.059L383.857,136.059z"/>
	<polygon fill="#727171" points="387.365,125.393 391.618,125.408 392.184,127.956 398.566,127.956 398.566,130.631 381.86,130.631 
		381.86,127.956 387.895,127.956 387.365,125.393 	"/>
	<path fill-rule="evenodd" clip-rule="evenodd" fill="#727171" d="M459.363,133.838l-0.001,3.602h7.393l0.013-3.602H459.363
		L459.363,133.838z M459.366,128.249l-0.003,3.125h7.412l0.011-3.125H459.366L459.366,128.249z M466.271,125.835h2.589
		c1.362,0,1.797,0.763,1.797,2.131v11.991c0,0-5.104,0.013-6.046,0l2.022,4.061l1.069-2.502h3.673l-2.677,6.66l2.122,4.295h-3.949
		l-6.468-12.514h-1.045l-0.004,10.106l3.508-0.003v2.413h-3.023h-2.253c-1.729,0-2.133-0.844-2.133-2.298v-22.251
		c0-1.621,0.68-2.09,1.92-2.09H466.271L466.271,125.835z"/>
	<path fill="#727171" d="M454.21,139.405v2.464h-4.563l-0.001,8.51l3.879-0.028v2.123h-3.4h-2.103c-1.35,0-2.282-0.837-2.282-2.221
		v-8.384h-3.037v-2.464h3.037v-3.553h-2.799v-0.902h-1.512l3.005-9.542h3.577l-0.87,2.614h7.141v2.463h-7.895l-0.895,2.9h8.719
		v2.467h-4.561v3.553H454.21L454.21,139.405z"/>
	<polygon fill="#727171" points="481.982,152.438 481.982,142.93 478.063,142.93 485.326,132.726 489.805,132.726 486.008,138.057 
		486.008,152.438 481.982,152.438 	"/>
	<polygon fill="#727171" points="506.441,129.314 491.281,129.314 491.281,126.328 506.441,126.328 506.441,129.314 	"/>
	<path fill="#727171" d="M507.5,136.634h-3.318v13.079c0,1.21-0.432,2.761-2.459,2.761h-1.926h-4.98v-2.682l5.016,0.006
		l-0.01-13.164h-9.742v-2.783h17.42V136.634L507.5,136.634z"/>
	<polygon fill="#727171" points="482.209,134.815 477.73,134.815 484.221,125.7 488.701,125.7 482.209,134.815 	"/>
</g>
</svg>
