<?xml version="1.0" encoding="utf-8"?>
<!-- Generator: Adobe Illustrator 16.0.0, SVG Export Plug-In . SVG Version: 6.00 Build 0)  -->
<!DOCTYPE svg PUBLIC "-//W3C//DTD SVG 1.1//EN" "http://www.w3.org/Graphics/SVG/1.1/DTD/svg11.dtd">
<svg version="1.1" id="图层_1" xmlns="http://www.w3.org/2000/svg" xmlns:xlink="http://www.w3.org/1999/xlink" x="0px" y="0px"
	 width="236px" height="75.93px" viewBox="0 0 236 75.93" enable-background="new 0 0 236 75.93" xml:space="preserve">
<g>
	<g>
		
			<linearGradient id="SVGID_1_" gradientUnits="userSpaceOnUse" x1="366.9297" y1="733.6868" x2="366.9297" y2="756.8074" gradientTransform="matrix(1 0 0 1 -328.5391 -716)">
			<stop  offset="0" style="stop-color:#5BB431"/>
			<stop  offset="0.17" style="stop-color:#5BB431"/>
			<stop  offset="0.5" style="stop-color:#00A3E9"/>
			<stop  offset="1" style="stop-color:#004DA0"/>
		</linearGradient>
		<path fill="url(#SVGID_1_)" d="M16.436,8.745c0.102-0.066,0.557-0.628,1.404-0.73c0,0-0.258,0.784-1.141,1.021
			c0,0,0.791,0.063,1.037,0.701c0,0-0.623,0.534-1.375-0.349c0,0,0.491,0.891-0.412,1.4c0,0-0.572-0.317,0.035-1.283
			c0,0-0.83,0.913-1.392,0.708c0,0-0.035-0.507,1.198-0.983c0,0-0.953,0.055-1.162-0.531c0,0,0.462-0.554,1.385,0.146
			c0,0-0.533-0.938,0.313-1.632C16.326,7.212,16.892,7.728,16.436,8.745L16.436,8.745z M31.982,23.698L31.982,23.698
			c1.408,0.516,1.125,1.143,0.614,1.245c-0.565-0.157-0.767-0.324-1.079-0.568c0.066,0.275,0.407,0.812,0.159,1.143
			c-0.304,0.255-0.658-0.09-0.829-0.252c-0.107-0.103-0.23-0.436-0.346-0.763c-0.079,0.092-1.1,0.796-1.506,0.26
			c-0.027-0.512,0.816-0.664,1.08-0.857c-0.373,0.111-1.201-0.375-1.34-0.507c-0.213-0.202,0.026-0.299,0.158-0.346
			c0.518-0.203,1.086-0.021,1.557,0.304c-0.094-0.26-0.607-0.735-0.158-1.139l0.273-0.104c0.348,0.006,0.454,0.168,0.563,0.267
			c0.227,0.221,0.283,0.563,0.238,0.809c0.08-0.181,0.697-0.427,0.697-0.427c0.539-0.267,0.951,0.205,0.521,0.532L31.982,23.698
			L31.982,23.698z M12.795,30.25L12.795,30.25c-0.399,0.188,0.162,1.131,0.201,1.225c0,0-0.617-0.029-0.992,0.039
			c0,0,0.421-1.089-0.129-1.374c-1.141-0.525-2.42,0.664-3.049,0.304c0.813-0.232,1.166-1.245,1.898-1.181
			c0.282,0.025,0.996,0.534,1.195,0.483c0,0,0-0.584,0.07-0.672c0.188,0.117,0.371,0.555,0.457,0.63
			c0.09,0.076,0.727-0.243,1.594-0.146c0.554,0.161,1.255,1.104,1.295,1.63C14.191,30.149,13.009,30.149,12.795,30.25L12.795,30.25z
			 M51.66,24.57L51.66,24.57c1.916,1.643,2.777,0.762,3.853,1.838c0.042-0.781-0.858-1.646-1.047-1.887
			c2.114,0.952,2.349,1.178,1.88,2.265c-0.328,0.77,1.135-0.245,1.98,0.574c-0.631-0.035-0.77,0.274-1.5,0.652
			c-1.459,0.699-2.116-0.099-2.916,0.668l-0.325-0.595c0,0,1.327-0.338,1.386-0.711C55.031,26.998,52.129,27.495,51.66,24.57
			L51.66,24.57z M68.336,29.629L68.336,29.629c-0.008-0.198-0.084-0.707,0.145-1.274c-0.029,0.021-1.148-0.072-0.99,0.471
			C67.593,29.164,68.062,29.107,68.336,29.629L68.336,29.629z M43.498,20.053L43.498,20.053c-0.527,0.047-1.178-0.055-1.735-0.241
			c0.435,0.375,1.069,1.021,0.839,1.454C42.867,20.981,43.316,20.38,43.498,20.053L43.498,20.053z M41.894,21.627L41.894,21.627
			c-0.575,0.215-1.192,0.042-1.459-0.311c0.405-0.197,0.464-0.515,0.521-0.773C41.145,21.179,41.447,21.466,41.894,21.627
			L41.894,21.627z M39.615,20.491L39.615,20.491c0.09-0.104,0.162-0.205,0.199-0.296c-0.074,0.07-0.18,0.128-0.302,0.168
			L39.615,20.491L39.615,20.491z M13.761,26.523L13.761,26.523c-0.828-1.026-0.198-1.409,0.146-1.11
			c0.309,0.265,0.395,0.484,0.515,0.813c0.077-0.236,0.062-0.802,0.399-0.936c0.35-0.054,0.459,0.366,0.51,0.564
			c0.035,0.125,0,0.386-0.064,0.681c0.1-0.037,1.178-0.046,1.241,0.539c-0.216,0.397-0.181-0.117-1.211,0.161
			c0.493,0.017,0.942,0.866,0.519,1.11c-0.433,0.246-0.89-0.247-1.05-0.868c0.081,0.264,0.183,0.843-0.343,0.939
			c-0.283,0.057-0.602-0.22-0.607-0.509c-0.011-0.28,0.035-0.553,0.186-0.72c-0.797,0.149-1.487-0.787-0.846-0.754L13.761,26.523
			L13.761,26.523z M41.672,26.807L41.672,26.807c-1.289-0.302-2.713,1.415-2.713,1.415c0.175-1.298,0.248-1.367,0.435-1.654
			c0.363-0.587,1.985-0.261,1.989-0.568c0.02-0.386-0.087-0.678-0.087-0.678l0.585,0.315c0.553,0.095,0.563-1.178,1.309-1.315
			c0.697-0.135,1.377,0.1,2.006,0.28c-1.588,0.235-2.701,1.151-2.498,1.796c0.115,0.307,0.655,0.594,0.655,0.594l-1.351,0.777
			C42.002,27.769,42.039,26.892,41.672,26.807L41.672,26.807z M38.57,24.886L38.57,24.886c0.055,0.104,0.168,0.132,0.271,0.066
			c0.102-0.068,0.102-0.208,0.018-0.284c-0.093-0.093-0.207-0.047-0.275-0.137l-0.372-0.515c0.128-0.089,0.228-0.214,0.289-0.357
			l0.596,0.191c0.104,0.03,0.075,0.164,0.213,0.231c0.106,0.049,0.222,0.002,0.263-0.11c0.041-0.113-0.041-0.224-0.149-0.243
			c-0.125-0.019-0.197,0.092-0.308,0.056l-0.592-0.191c0.03-0.082,0.041-0.168,0.041-0.26c0-0.073-0.007-0.141-0.021-0.208
			l0.591-0.191c0.103-0.032,0.157,0.088,0.312,0.061c0.108-0.021,0.172-0.125,0.146-0.238c-0.036-0.119-0.167-0.161-0.267-0.109
			c-0.115,0.063-0.104,0.188-0.213,0.225l-0.588,0.189c-0.05-0.151-0.148-0.282-0.271-0.384l0.364-0.507
			c0.063-0.084,0.185-0.021,0.291-0.133c0.078-0.084,0.068-0.205-0.025-0.28c-0.091-0.074-0.227-0.03-0.277,0.068
			c-0.059,0.116,0.023,0.214-0.041,0.305l-0.363,0.506c-0.129-0.086-0.278-0.14-0.439-0.144v-0.64c0-0.105,0.125-0.124,0.15-0.275
			c0.017-0.114-0.063-0.208-0.18-0.212c-0.121-0.005-0.209,0.106-0.187,0.219c0.019,0.128,0.146,0.158,0.146,0.271v0.639
			c-0.16,0.007-0.306,0.057-0.429,0.143l-0.387-0.529c-0.062-0.087,0.034-0.177-0.037-0.313c-0.054-0.104-0.173-0.131-0.276-0.066
			c-0.096,0.066-0.096,0.207-0.019,0.286c0.096,0.093,0.209,0.043,0.278,0.134l0.383,0.528c-0.116,0.093-0.209,0.217-0.26,0.357
			l-0.638-0.205c-0.104-0.034-0.077-0.162-0.215-0.23c-0.104-0.051-0.222-0.004-0.26,0.107c-0.039,0.11,0.038,0.227,0.151,0.245
			c0.127,0.016,0.194-0.093,0.307-0.06l0.63,0.208c-0.024,0.072-0.034,0.154-0.034,0.234c0,0.07,0.01,0.139,0.021,0.205
			l-0.637,0.207c-0.105,0.033-0.158-0.088-0.312-0.063c-0.112,0.021-0.175,0.123-0.146,0.24c0.033,0.118,0.168,0.162,0.264,0.108
			c0.115-0.063,0.104-0.189,0.216-0.226l0.636-0.205c0.049,0.144,0.137,0.27,0.245,0.363l-0.39,0.542
			c-0.063,0.086-0.182,0.021-0.288,0.133c-0.081,0.083-0.068,0.205,0.022,0.279c0.094,0.078,0.229,0.032,0.279-0.069
			c0.057-0.112-0.023-0.214,0.038-0.305l0.39-0.534c0.122,0.086,0.26,0.145,0.418,0.158v0.654c0,0.104-0.127,0.121-0.15,0.274
			c-0.018,0.115,0.064,0.208,0.176,0.213c0.126,0.009,0.212-0.108,0.188-0.22c-0.016-0.128-0.145-0.159-0.145-0.27l0.012-0.651
			c0.157,0,0.299-0.042,0.428-0.117l0.375,0.519C38.594,24.657,38.494,24.751,38.57,24.886L38.57,24.886z M25.031,26.845
			L25.031,26.845c-0.086-0.135,0.028-0.225-0.047-0.313l-0.449-0.514c-0.151,0.074-0.332,0.117-0.517,0.117l-0.013,0.646
			c0,0.109,0.15,0.14,0.173,0.271c0.022,0.105-0.074,0.223-0.222,0.216c-0.145-0.007-0.241-0.098-0.215-0.212
			c0.022-0.152,0.176-0.17,0.176-0.275v-0.649c-0.182-0.016-0.354-0.071-0.494-0.159l-0.471,0.532
			c-0.076,0.091,0.02,0.191-0.053,0.304c-0.059,0.101-0.217,0.146-0.328,0.069c-0.115-0.074-0.129-0.193-0.031-0.277
			c0.135-0.11,0.271-0.047,0.35-0.132l0.467-0.538c-0.132-0.098-0.236-0.221-0.293-0.359l-0.765,0.2
			c-0.128,0.036-0.116,0.162-0.253,0.226c-0.117,0.051-0.28,0.007-0.319-0.108c-0.042-0.116,0.036-0.218,0.175-0.236
			c0.184-0.029,0.25,0.094,0.375,0.061l0.762-0.206c-0.016-0.068-0.028-0.135-0.028-0.206c0-0.082,0.013-0.161,0.041-0.234
			l-0.758-0.202c-0.13-0.034-0.212,0.072-0.364,0.056c-0.13-0.018-0.232-0.131-0.186-0.243c0.056-0.112,0.186-0.158,0.313-0.109
			c0.167,0.069,0.139,0.196,0.26,0.23l0.758,0.207c0.064-0.143,0.174-0.265,0.318-0.358l-0.462-0.523
			c-0.075-0.091-0.219-0.042-0.335-0.135c-0.093-0.075-0.093-0.217,0.027-0.282c0.123-0.066,0.262-0.04,0.326,0.063
			c0.09,0.138-0.029,0.229,0.051,0.313l0.459,0.523c0.148-0.084,0.328-0.134,0.518-0.14v-0.634c0-0.111-0.15-0.144-0.18-0.271
			c-0.018-0.107,0.076-0.222,0.229-0.216c0.141,0.003,0.237,0.099,0.219,0.212c-0.029,0.153-0.185,0.168-0.185,0.275v0.634
			c0.19,0.006,0.375,0.056,0.527,0.14l0.438-0.5c0.082-0.089-0.023-0.188,0.055-0.304c0.055-0.098,0.211-0.14,0.328-0.065
			c0.113,0.071,0.127,0.193,0.031,0.276c-0.132,0.111-0.27,0.047-0.35,0.132l-0.441,0.503c0.15,0.1,0.26,0.229,0.324,0.382
			l0.707-0.188c0.125-0.035,0.113-0.166,0.254-0.225c0.122-0.05,0.28-0.012,0.319,0.108c0.036,0.115-0.036,0.219-0.175,0.237
			c-0.184,0.028-0.25-0.092-0.371-0.061l-0.711,0.189c0.021,0.068,0.029,0.138,0.029,0.208c0,0.09-0.018,0.179-0.047,0.261
			l0.71,0.19c0.13,0.034,0.21-0.076,0.366-0.055c0.126,0.017,0.232,0.127,0.18,0.24c-0.054,0.111-0.186,0.157-0.312,0.109
			c-0.167-0.068-0.144-0.199-0.265-0.231l-0.711-0.191c-0.074,0.145-0.193,0.269-0.345,0.36l0.447,0.511
			c0.077,0.087,0.226,0.039,0.334,0.133c0.091,0.074,0.097,0.217-0.028,0.282C25.24,26.976,25.097,26.952,25.031,26.845
			L25.031,26.845z M20.546,28.331L20.546,28.331c1.089,0.399,0.866,0.887,0.476,0.966c-0.441-0.121-0.599-0.249-0.843-0.438
			c0.062,0.21,0.317,0.626,0.132,0.884c-0.244,0.198-0.52-0.069-0.645-0.195c-0.09-0.081-0.178-0.339-0.271-0.592
			c-0.055,0.07-0.852,0.616-1.168,0.204c-0.015-0.396,0.634-0.518,0.843-0.67c-0.291,0.09-0.933-0.287-1.045-0.392
			c-0.166-0.156,0.026-0.23,0.125-0.268c0.401-0.158,0.844-0.019,1.209,0.233c-0.074-0.202-0.476-0.568-0.121-0.884l0.207-0.08
			c0.271,0.003,0.346,0.128,0.435,0.208c0.173,0.17,0.221,0.434,0.187,0.625c0.064-0.14,0.543-0.331,0.543-0.331
			c0.411-0.206,0.729,0.16,0.396,0.411L20.546,28.331L20.546,28.331z M62.16,15.106L62.16,15.106
			c0.172-0.598,0.605-0.917,0.867-0.768c0.385,0.224-0.078,0.695-0.629,0.924c0.521-0.192,1.113-0.15,1.068,0.229
			c-0.049,0.354-0.54,0.476-1.135,0.083c0.473,0.404,0.527,0.934,0.187,1.054c-0.35,0.125-0.588-0.235-0.511-0.938
			c-0.15,0.667-0.602,0.93-0.822,0.825c-0.354-0.167-0.293-0.582,0.592-0.996c-0.679,0.25-1.125,0.084-1.076-0.199
			c0.054-0.323,0.613-0.377,1.141-0.108c-0.311-0.207-0.533-0.85-0.102-0.999C62.02,14.119,62.345,14.428,62.16,15.106L62.16,15.106
			z M73.748,26.664L73.748,26.664c0.607-0.621,1.404-0.723,1.681-0.354c0.408,0.544-0.524,0.813-1.438,0.712
			c0.856,0.122,1.653,0.58,1.354,1.018c-0.274,0.41-1.043,0.224-1.631-0.669c0.414,0.829,0.174,1.519-0.382,1.438
			c-0.561-0.084-0.686-0.697-0.145-1.518c-0.621,0.723-1.412,0.742-1.656,0.457c-0.389-0.443-0.062-0.919,1.435-0.828
			c-1.101-0.153-1.634-0.663-1.39-0.984c0.279-0.359,1.093-0.046,1.662,0.646c-0.306-0.467-0.226-1.418,0.469-1.306
			C74.146,25.344,74.414,25.95,73.748,26.664L73.748,26.664z M70.304,21.31L70.304,21.31c0.224-0.77,0.78-1.183,1.123-0.984
			c0.498,0.289-0.103,0.896-0.815,1.187c0.682-0.248,1.439-0.192,1.375,0.299c-0.057,0.457-0.693,0.613-1.459,0.104
			c0.615,0.528,0.68,1.207,0.244,1.362c-0.453,0.158-0.766-0.306-0.658-1.214c-0.199,0.861-0.783,1.199-1.066,1.063
			c-0.45-0.214-0.375-0.75,0.764-1.282c-0.874,0.32-1.449,0.11-1.384-0.259c0.069-0.417,0.794-0.485,1.466-0.139
			c-0.396-0.269-0.686-1.097-0.122-1.287C70.123,20.041,70.541,20.438,70.304,21.31L70.304,21.31z M54.503,15.156L54.503,15.156
			c0.864-0.914,1.94-1.099,2.272-0.582c0.491,0.761-0.771,1.185-1.979,1.083c1.127,0.136,2.146,0.755,1.706,1.396
			c-0.405,0.596-1.404,0.363-2.111-0.892c0.479,1.17,0.09,2.167-0.637,2.074c-0.742-0.099-0.842-0.971-0.055-2.165
			c-0.883,1.063-1.943,1.119-2.244,0.729c-0.475-0.621,0.012-1.313,1.984-1.249c-1.453-0.173-2.105-0.877-1.755-1.344
			c0.403-0.536,1.456-0.122,2.146,0.846c-0.358-0.654-0.172-2.02,0.744-1.886C55.158,13.251,55.455,14.103,54.503,15.156
			L54.503,15.156z M40.211,5.056L40.211,5.056c0.16-0.621,0.68-0.939,1.039-0.768c0.531,0.252-0.016,0.728-0.713,0.941
			c0.668-0.181,1.438-0.107,1.41,0.29c-0.013,0.371-0.64,0.479-1.455,0.038c0.658,0.449,0.791,1.011,0.362,1.121
			c-0.437,0.118-0.788-0.273-0.767-1.013c-0.123,0.698-0.68,0.953-0.979,0.833c-0.476-0.191-0.449-0.625,0.653-1.023
			c-0.853,0.232-1.45,0.042-1.422-0.257c0.037-0.338,0.755-0.373,1.466-0.063c-0.421-0.231-0.788-0.919-0.234-1.059
			C39.92,4.011,40.371,4.351,40.211,5.056L40.211,5.056z M28.373,10.477L28.373,10.477c-0.082-0.562-1.494-1.61-2.717-1.689
			c1.211-0.643,1.777-0.376,1.777-0.376c0.835,0.18,1.155,1.585,1.605,1.445c0.229-0.122,0.63-0.458,0.63-0.458L29.54,10.13
			c0.039,0.45,1.539-0.118,2.06,0.492c0,0,0.644,0.518,0.697,1.979c-0.668-1.212-2.49-1.944-3.086-1.497
			c-0.279,0.208-0.118,0.899-0.118,0.899c-0.363-0.404-0.919-0.695-1.434-0.827C27.66,11.177,28.435,10.87,28.373,10.477
			L28.373,10.477z M34.773,16.269L34.773,16.269c0.387-1.146,1.338-1.761,1.908-1.471c0.852,0.433-0.161,1.335-1.379,1.773
			c1.157-0.374,2.445-0.291,2.342,0.438c-0.105,0.685-1.186,0.918-2.484,0.161c1.037,0.783,1.154,1.795,0.406,2.03
			c-0.762,0.236-1.289-0.456-1.115-1.812c-0.338,1.284-1.326,1.787-1.813,1.586c-0.766-0.317-0.636-1.119,1.301-1.913
			c-1.479,0.479-2.464,0.163-2.354-0.386c0.122-0.623,1.35-0.729,2.493-0.21c-0.672-0.395-1.162-1.631-0.207-1.918
			C34.474,14.375,35.178,14.968,34.773,16.269L34.773,16.269z M23.261,15.518L23.261,15.518c-0.37-0.549-0.261-1.04,0.116-1.075
			c0.563-0.058,0.557,0.562,0.251,1.058c0.312-0.453,0.89-0.764,1.182-0.453c0.28,0.295-0.067,0.671-0.964,0.72
			c0.798,0.031,1.318,0.396,1.116,0.685c-0.206,0.296-0.759,0.162-1.313-0.408c0.457,0.588,0.278,1.048-0.021,1.098
			c-0.474,0.076-0.791-0.269-0.345-1.091c-0.397,0.58-0.961,0.718-1.166,0.477c-0.242-0.273,0.223-0.642,0.947-0.741
			c-0.469,0.021-1.25-0.327-0.979-0.689C22.256,14.862,22.824,14.906,23.261,15.518L23.261,15.518z M11.238,17.885L11.238,17.885
			c0.121-0.637,0.514-0.965,0.787-0.79c0.398,0.26-0.013,0.746-0.539,0.965c0.504-0.184,1.086-0.11,1.073,0.296
			c-0.021,0.382-0.491,0.49-1.108,0.04c0.498,0.461,0.598,1.029,0.272,1.147c-0.328,0.117-0.599-0.282-0.579-1.04
			c-0.093,0.716-0.517,0.979-0.738,0.854c-0.359-0.194-0.338-0.637,0.498-1.046c-0.643,0.24-1.103,0.043-1.08-0.261
			c0.028-0.347,0.576-0.379,1.111-0.068c-0.318-0.232-0.594-0.938-0.177-1.076C11.017,16.818,11.359,17.161,11.238,17.885
			L11.238,17.885z M4.701,19.402L4.701,19.402c0.035-0.701,0.463-1.11,0.816-0.967c0.527,0.223,0.119,0.805-0.484,1.117
			c0.574-0.271,1.287-0.285,1.342,0.156c0.046,0.408-0.51,0.6-1.334,0.208c0.686,0.417,0.906,1.014,0.531,1.188
			c-0.379,0.177-0.771-0.215-0.883-1.022c0.012,0.777-0.451,1.122-0.742,1.024c-0.463-0.155-0.518-0.635,0.42-1.196
			c-0.735,0.352-1.32,0.208-1.344-0.121c-0.021-0.377,0.627-0.493,1.331-0.237c-0.428-0.207-0.877-0.919-0.403-1.131
			C4.252,18.288,4.724,18.61,4.701,19.402L4.701,19.402z M11.477,21.923L11.477,21.923c0.418-1.02,1.309-1.468,1.799-1.115
			c0.729,0.521-0.238,1.229-1.355,1.472c1.061-0.189,2.208,0.063,2.063,0.73c-0.134,0.623-1.117,0.693-2.223-0.191
			c0.868,0.876,0.908,1.838,0.225,1.952c-0.701,0.12-1.121-0.601-0.881-1.839c-0.379,1.155-1.301,1.488-1.716,1.231
			c-0.662-0.404-0.491-1.131,1.288-1.611c-1.359,0.246-2.21-0.183-2.075-0.68c0.151-0.567,1.25-0.495,2.239,0.146
			c-0.571-0.464-0.926-1.688-0.061-1.82C11.332,20.111,11.919,20.763,11.477,21.923L11.477,21.923z M3.544,28.721L3.544,28.721
			c-0.552,0.003-1.757,1.277-1.998,2.461c-0.462-1.271-0.241-1.695-0.241-1.695c0.202-0.691,1.818-1.008,1.748-1.455
			c-0.092-0.249-0.359-0.681-0.359-0.681l0.694,0.223c0.447,0.022,0.099-1.516,0.769-1.944c0,0,0.594-0.551,2.021-0.406
			c-1.272,0.485-2.244,2.113-1.841,2.818c0.177,0.299,0.822,0.227,0.822,0.227c-0.442,0.303-0.803,0.804-1.002,1.285
			C4.156,29.551,3.939,28.716,3.544,28.721L3.544,28.721z M45.556,13.017L45.556,13.017c-0.288-0.207-2.37,0.704-2.37,0.704
			c0.375-0.58,0.557-1.198,0.557-1.198c0.428-0.363,1.404-0.104,1.709-0.191c-0.047-0.121,0.035-0.551,0.035-0.551l0.418,0.343
			c0.279-0.032,0.683-0.92,1.293-0.919c0,0,0.845,0.472,1.494,0.607c-1.177,0.134-2.324,0.497-2.259,1.038
			c0.043,0.265,0.429,0.572,0.429,0.572l-1.194,0.412C45.666,13.834,45.801,13.196,45.556,13.017L45.556,13.017z M65.351,14.281
			L65.351,14.281c1.647,1.861,2.503,1.054,3.427,2.253c0.084-0.788-0.68-1.759-0.845-2.022c1.884,1.178,2.084,1.428,1.575,2.492
			c-0.35,0.748,1.066-0.138,1.783,0.782c-0.577-0.105-0.729,0.202-1.424,0.516c-1.387,0.563-1.943-0.312-2.73,0.387l-0.262-0.638
			c0,0,1.246-0.208,1.332-0.585C68.287,17.089,65.578,17.305,65.351,14.281L65.351,14.281z M25.828,15.575L25.828,15.575
			c-0.443-1.023-1.166-1.181-1.426-0.852c-0.412,0.522,0.52,1.189,1.121,1.228c-0.941,0.044-1.607,0.539-1.355,1.002
			c0.222,0.41,0.961,0.285,1.591-0.552c-0.728,1.204-0.39,1.792,0.229,1.745c0.387-0.03,0.713-0.716,0.236-1.699
			c0.602,0.978,1.279,1.265,1.604,0.839c0.313-0.417-0.282-1.063-1.301-1.235c1.157,0.065,1.67-0.465,1.377-0.961
			c-0.317-0.535-1.123-0.145-1.613,0.508c0.494-0.718,0.617-1.679-0.11-1.679C25.689,13.919,25.453,14.666,25.828,15.575
			L25.828,15.575z M46.964,20.394L46.964,20.394c-0.591-0.885-1.362-1.604-2.392-1.443c-0.301,0.051-0.513,0.234-0.699,0.482
			c-0.094-0.396-0.887-0.67-2.195-0.364c0.484-0.564,0.961-1.92,0.391-2.091c-0.541-0.157-1.143,0.683-1.258,1.771
			c-0.302-1.17-1.14-1.809-1.591-1.547c-0.467,0.273-0.172,1.438,0.653,1.977c-1-0.091-1.67-0.124-2.051,0.415
			c-0.103,0.153-0.233,0.613,0.188,0.865c-0.479-0.122-0.852,0.099-0.975,0.383c-0.174-0.031-0.719-0.068-0.76,0.706
			c-0.049,0.862-0.582,0.567-0.457,0.288c0.305-0.714,0.271-1.743,0.225-1.898c-0.874,0.383-1.381,1.469-1.279,2.623
			c0.035,0.38-0.301,0.352-0.273,0.046c0.146-1.362-0.289-2.062-0.811-2.725c-0.027,0.174-0.107,0.274-0.154,0.407
			c-0.119-0.316-0.396-0.438-0.546-0.454c0.308,1.26-0.231,1.612,0.308,2.873c-1.11-0.315-0.625-1.51-1.541-2.075
			c-0.055,0.657-0.797,0.808-1.176,0.542c0.344-0.035,0.69-0.338,0.762-0.497c-0.151-0.145-0.519-0.323-0.941-0.382
			c0.327-0.077,0.616-0.278,0.852-0.619c-0.576,0.044-0.604-0.431-0.213-0.73c-0.23-0.04-0.563,0.051-0.652,0.118
			c0.048-0.11,0.098-0.218,0.074-0.418c0,0-0.186,0.021-0.353,0.242c0.08-0.112,0.115-0.415,0.063-0.543
			c-0.193,0.069-0.381,0.332-0.498,0.598c0.022-0.19,0.013-0.462-0.071-0.551c-0.468,0.221-0.613,0.727-0.685,1.104
			c-0.047-0.364-0.223-0.521-0.223-0.521c-0.105,0.075-0.234,0.32-0.309,0.692c-0.028-0.104-0.105-0.414-0.18-0.441
			c-0.23,0.636-0.254,1.19,0.2,1.895c0.15,0.229,0.449,0.365,0.497,0.607c0.213,1.023-1.64,1.313-1.64,1.313
			c0.555-0.569,0.934-1.246,0.872-1.93c-0.424,0.085-0.846,0.464-1.039,0.749c0.133-0.38,0.357-1.019,0.226-1.481
			c-0.524,0.248-0.794,0.715-0.884,1.001c-0.089-0.434-0.057-0.479-0.305-0.861c-0.403-0.615-1.95-0.686-2.365,0.733
			c-0.123-0.195-0.729-0.421-0.794-0.402c-0.052,0.465,0.31,1.185,0.448,1.393c-0.543-0.758-1.119-0.95-1.332-0.979
			c0.052,0.468,0.424,1.134,0.873,1.562c-1.053-0.94-1.863-0.142-1.959,0.338c-0.074-1.139-0.854-1.591-0.854-1.591
			c-1,1.249-0.563,2.377-0.161,2.778c-0.273,1.103-1.462,0.409-0.974-0.155c0.237-0.314-0.188-1.109-1.236-0.304
			c1.275-1.078-0.823-1.957-0.747-0.229c-0.379-1.664-2.34-0.313-0.738,0.542c-1.684-0.606-1.912,1.42-0.016,0.908
			c-0.229,0.2-0.624,0.896-0.126,1.132c0.438,0.203,0.769-0.409,0.827-0.847c0.139,0.561,0.678,0.854,1.271,0.604
			c0.36-0.151,0.604,0.125,0.615,0.318c0.008,0.182-0.242,0.56-1.085,0.228c0.354,1.211-0.88,1.487-1.417,0.739
			c-0.289-0.402-1.886-0.757-1.886-0.757c0.222,0.771-1.164,2.428-1.785,1.71c-0.271-0.313,0.261-0.861,0.261-0.861
			c0.688-0.892-1.771-1.226-1.849-0.214c-0.192-0.092-0.769-0.136-1.08-0.01c0.437-0.231,0.91-1.237,0.437-1.458
			c-0.529-0.25-1.063,0.498-1.172,1.125c-0.033-0.881-0.521-1.711-1.078-1.396c-0.413,0.236-0.143,1.181,0.374,1.579
			c-0.705-0.323-1.5-0.421-1.621,0.125c-0.143,0.602,0.955,0.839,1.553,0.618c-0.607,0.646-0.725,1.472-0.221,1.661
			c0.524,0.203,0.994-0.266,1.139-1.063c-0.002,0.301,0.064,0.564,0.225,0.781c-0.264,0.36-0.428,0.81-1.013,1.104
			c-0.933,0.478-1.706,0.369-1.671,0.987c0.02,0.485,1.044,0.414,1.814-0.339c1.055-1.034,1.756,0.666,0.688,1.332
			c-0.257,0.164-0.804-0.063-1.163-0.158c-1.301-0.343-1.368,0.858-0.025,1.563l29.959,20.8l27.98-19.843
			c0.396-0.252,0.636-0.447,0.979-0.742l1.744,0.198c0,0-0.504-0.616-0.297-0.994c0.303-0.547,1.328-1.187,3.646-0.419
			c-0.799-1.025-1.018-1.415-1.018-1.415c-0.707-0.349-1.443,0.196-2.091,0.231c-0.123-0.148-0.308-0.204-0.53-0.202l-0.404-0.532
			c0,0-0.102,0.357-0.426,0.688c-1.07,0.305-2.319,0.639-2.246-0.39c0.055-0.676,0.381-0.832,1.186-0.717
			c0.251,0.034,0.87,0.063,1.286-0.251c0.118-0.088,0.243-0.114,0.323-0.184c0.133,0.277,0.318,0.548,0.729,0.371
			c0.44-0.313,0.401-0.733,0.361-1.467c0.174,0.504,1.296,1.452,1.626,0.966c0.199-0.294-0.232-1.178-1.18-1.469
			c0,0,1.565-0.098,1.469-0.81c-0.11-0.777-1.563-0.175-1.741,0.021c0.229-0.543,0.289-1.666-0.231-1.723
			c-0.654-0.071-0.697,1.045-0.578,1.627c-0.396-0.945-1.355-1.55-1.703-1.104c-0.324,0.426,0.453,1.354,1.047,1.546
			c-1.443,0.167-1.678,1.214-2.992,1.125c0.701-0.458,0.945-1.205,0.559-1.672c-0.332-0.401-1.281-0.209-1.689,0.916
			c-0.083-0.754-0.471-1.07-0.78-0.854c-0.396,0.271-0.125,0.9-0.312,1.022c0.061-0.017,0.121-0.021,0.18-0.021
			c0.887,0.024,0.34,1.143-0.542,1.966c0.854-0.745,1.995-1.171,2.168-0.539c0.157,0.592-0.687,1.196-2.075,1.077
			c1.176,0.237,1.641,1.016,1.079,1.487c-0.565,0.487-1.272,0.125-1.606-1.034c0.172,1.167-0.498,1.953-0.984,1.977
			c-0.773,0.031-0.95-0.663,0.428-2.05c-1.105,0.957-2.061,1.078-2.166,0.59c-0.123-0.551,0.896-1.104,2.067-1.122
			c-0.724-0.063-1.585-0.879-0.875-1.474c0.456-0.376,1.28-0.167,1.401,1.043c-0.037-0.496,0.063-0.94,0.231-1.292
			c0.504-0.804,0.485-1.896,0.369-2.185c-0.347-0.852-1.31-0.771-1.452-0.712c-1.191,0.531-1.109,1.375-1.329,0.267
			c-0.181-0.901,0.774-0.765,1.354-0.892l0.162,0.563c1.201-0.868,1.857,0.438,3.888-0.145c1.021-0.34,1.272-0.745,2.079-0.512
			c-0.873-1.396-2.998-0.362-2.385-1.363c0.861-1.414,0.617-1.794-1.848-3.726c0.188,0.394,1.121,1.866,0.874,2.96
			c-1.103-1.821-2.429-0.811-4.467-3.668c-0.127,4.276,3.711,4.373,3.539,4.891c-0.113,0.331-0.882,0.497-1.421,0.57
			c-0.006-0.101-0.043-0.224-0.102-0.375c-0.078-0.159-0.438-1.239-1.697-1.564c-0.84-0.223-1.698,0.18-2.162,0.762
			c-0.896,1.134-3.408,0.825-2.795-0.23c0.229-0.386,0.853-0.089,1.178-0.369c-0.152-0.072-0.109-0.395-0.576-0.464
			c0.273-0.036,0.541-0.215,0.576-0.329c-0.229,0.041-0.421-0.077-0.454-0.176c0.11-0.038,0.405-0.107,0.399-0.286
			c-0.01-0.493-1.094-0.336-0.754-0.583c0.461-0.35,0.043-0.799-0.297-0.695c-0.648,0.198-1.012,0.644-1.625,0.53
			c0,0,1.11-0.629,1.605-1.712c-0.867-0.093-0.623-0.686-0.23-0.76c-1.07,0.104-1.729,1.878-2.389,1.926
			c0.514-1.096,0.588-1.851,0.546-2.475c-0.649,0.286-1.128,1.426-1.218,1.935c-0.09,0.492-0.421,0.503-0.504,0.056
			c-0.217-1.163-0.743-1.556-0.936-1.693c-0.213,0.223-0.396,0.876-0.318,1.488c-0.396-0.801-0.631-1.072-0.912-1.211
			c-1.008,1.076-0.943,2.298-0.943,2.298c0.348-0.455,0.816-0.656,1.135-0.493c0.653,0.332-0.129,1.024-1.065,1.363
			c0.892-0.285,1.886-0.223,1.798,0.343c-0.072,0.521-0.906,0.705-1.909,0.122c0.798,0.604,0.894,1.383,0.319,1.563
			c-0.588,0.183-0.997-0.352-0.865-1.391c-0.258,0.985-1.02,1.372-1.393,1.218c-0.59-0.246-0.484-0.86,1-1.472
			c-1.137,0.367-1.898,0.126-1.809-0.294c0.09-0.481,1.032-0.563,1.915-0.163C46.633,21.562,46.262,20.637,46.964,20.394
			L46.964,20.394z M40.255,13.61L40.255,13.61c0.173,0.461-0.86,1.088-0.86,1.088l1.908,0.871c0,0-0.072-0.798,0.189-1.159
			c0.588-0.707,2.388,0.164,3.931,1.343c-0.456-1.263-1.017-2.408-1.017-2.408c-0.719-0.697-2.281-0.108-2.649-0.392l-0.071-0.876
			c0,0-0.623,0.409-0.714,0.609c-0.472-0.244-1.313-1.658-2.256-1.714c0,0-0.974,0.518-2.118,0.775
			C36.597,11.748,39.83,12.51,40.255,13.61L40.255,13.61z M54.072,10.055L54.072,10.055c0.642-0.324,1.254-0.213,1.332,0.129
			c0.114,0.505-0.644,0.485-1.273,0.193c0.579,0.294,1.005,0.826,0.65,1.084c-0.345,0.241-0.83-0.08-0.969-0.892
			c0.026,0.723-0.373,1.181-0.742,0.989c-0.381-0.195-0.267-0.683,0.39-1.172c-0.685,0.396-1.265,0.223-1.345-0.05
			c-0.129-0.423,0.263-0.701,1.31-0.281c-0.749-0.376-0.954-0.883-0.679-1.063c0.318-0.211,0.804,0.22,0.982,0.875
			c-0.064-0.421,0.303-1.117,0.768-0.865C54.797,9.161,54.791,9.673,54.072,10.055L54.072,10.055z M13.693,16.702L13.693,16.702
			c1.23,3.16,4.057,2.044,4.092,2.472c0.035,0.431-1.228,1.062-1.228,1.062l0.485,0.599c0.615-1.008,1.494-0.253,2.792-1.306
			c0.643-0.563,0.704-0.939,1.358-1.02c-1.07-0.748-2.297,0.662-2.164-0.254c0.194-1.3-0.098-1.502-2.494-2.148
			c0.252,0.23,1.394,1.017,1.553,1.892C16.711,17.01,16.066,18.157,13.693,16.702z"/>
		<path fill="#717071" d="M169.844,66.159h-3.016l-0.871,2.729h-1.813l3.129-9.632h2.18l3.146,9.632h-1.888L169.844,66.159
			L169.844,66.159z M167.258,64.837L167.258,64.837h2.16l-1.086-3.548L167.258,64.837L167.258,64.837z M225.621,59.256
			L225.621,59.256h1.76v5.615c0,1.888,0.783,2.761,1.967,2.761c1.275,0,2.033-0.873,2.033-2.761v-5.615h1.76v5.504
			c0,2.972-1.533,4.287-3.842,4.287c-2.236,0-3.678-1.245-3.678-4.271V59.256L225.621,59.256z M218.787,67.632L218.787,67.632
			c1.713,0,2.67-1.57,2.67-3.59c0-1.813-0.898-3.528-2.66-3.528c-1.756,0-2.668,1.672-2.668,3.59
			C216.127,66.016,217.102,67.632,218.787,67.632L218.787,67.632z M218.744,69.047L218.744,69.047c-2.744,0-4.457-2.087-4.457-4.902
			c0-2.942,1.869-5.044,4.588-5.044c2.797,0,4.457,2.127,4.457,4.87C223.332,67.203,221.373,69.047,218.744,69.047L218.744,69.047z
			 M204.381,59.256L204.381,59.256h1.764v3.861h4.07v-3.861h1.758v9.632h-1.758v-4.24h-4.07v4.24h-1.764V59.256L204.381,59.256z
			 M194.863,68.888L194.863,68.888v-0.97l4.93-7.16h-4.5v-1.502h6.77v1.029l-4.854,7.104h4.931v1.497L194.863,68.888L194.863,68.888
			z M192.91,63.574L192.91,63.574v4.871c-0.613,0.228-1.813,0.544-3.084,0.544c-1.629,0-2.871-0.415-3.787-1.285
			c-0.854-0.814-1.344-2.086-1.344-3.546c0.014-3.058,2.174-5,5.357-5c1.184,0,2.118,0.244,2.559,0.442l-0.385,1.428
			c-0.531-0.241-1.17-0.411-2.188-0.411c-2.058,0-3.504,1.213-3.504,3.46c0,2.195,1.346,3.48,3.351,3.48
			c0.641,0,1.1-0.084,1.329-0.187v-2.41h-1.702v-1.388L192.91,63.574L192.91,63.574z M154.459,59.256L154.459,59.256h1.754v3.861
			h4.076v-3.861h1.758v9.632h-1.758v-4.24h-4.076v4.24h-1.754V59.256L154.459,59.256z M142.639,68.888L142.639,68.888v-9.632h5.572
			v1.445h-3.814v2.66h3.543v1.426h-3.543v4.101H142.639L142.639,68.888z M135.793,67.632L135.793,67.632
			c1.709,0,2.67-1.57,2.67-3.59c0-1.813-0.898-3.528-2.66-3.528c-1.754,0-2.668,1.672-2.668,3.59
			C133.135,66.016,134.105,67.632,135.793,67.632L135.793,67.632z M135.75,69.047L135.75,69.047c-2.744,0-4.463-2.087-4.463-4.902
			c0-2.942,1.877-5.044,4.59-5.044c2.797,0,4.457,2.127,4.457,4.87C140.334,67.203,138.381,69.047,135.75,69.047L135.75,69.047z
			 M118.932,68.888L118.932,68.888v-9.632h1.744v4.433l3.271-4.433h2.152l-3.177,4.308l3.392,5.324h-2.058l-2.396-3.891l-1.19,1.622
			v2.269H118.932L118.932,68.888z M103.58,66.159L103.58,66.159h-3.018l-0.875,2.729h-1.813l3.134-9.632h2.175l3.148,9.632h-1.885
			L103.58,66.159L103.58,66.159z M100.992,64.837L100.992,64.837h2.158l-1.08-3.548L100.992,64.837L100.992,64.837z M91.35,64.473
			L91.35,64.473v3.201h0.932c1.131,0,2.14-0.432,2.14-1.612c0-1.132-0.983-1.589-2.197-1.589H91.35L91.35,64.473z M91.35,60.49
			L91.35,60.49V63.2h0.903c1.228,0,1.897-0.572,1.897-1.382c0-0.918-0.685-1.329-1.8-1.329H91.35L91.35,60.49z M95.355,68.105
			L95.355,68.105c-0.691,0.588-1.818,0.886-3.592,0.886h-2.156v-9.804h2.573h0.123c1.218,0.011,1.999,0.185,2.622,0.613
			c0.598,0.359,0.996,0.986,0.996,1.816c0,0.884-0.555,1.688-1.598,2.07c1.014,0.301,1.945,1.101,1.945,2.434
			C96.269,66.974,95.895,67.645,95.355,68.105L95.355,68.105z M114.482,59.256L114.482,59.256h1.625v9.632h-1.832l-4.185-7.022
			v7.022h-1.626v-9.632h2.01l4.008,6.747V59.256L114.482,59.256z M180.744,59.256L180.744,59.256h1.625v9.632h-1.828l-4.186-7.022
			v7.022h-1.625v-9.632h2.012l4.002,6.747V59.256L180.744,59.256z"/>
		<path fill="#717071" d="M37.822,64.049c0,1.954-0.895,4.023-3.096,4.023c-2.449,0-3.313-2.069-3.313-4.023
			c0-1.96,0.863-4.029,3.313-4.029C36.929,60.02,37.822,62.089,37.822,64.049L37.822,64.049z M30.257,68.772L30.257,68.772h1.067
			v-1.796h0.035c0.53,1.283,1.851,2.071,3.368,2.071c2.876,0,4.25-2.328,4.25-4.998c0-2.675-1.372-5-4.25-5
			c-1.403,0-2.78,0.713-3.278,2.069h-0.035v-5.424h-1.157V68.772z"/>
		<path fill="#717071" d="M46.795,65.111c0,1.51-1.247,2.886-3.282,2.886c-1.077,0-2.125-0.674-2.125-1.787
			c0-2.211,1.729-2.367,3.687-2.715c0.646-0.112,1.547-0.433,1.642-0.577h0.031L46.795,65.111L46.795,65.111z M40.84,60.732
			L40.84,60.732c0,0,1.568-0.643,3.46-0.643c1.356,0,2.347,0.406,2.347,1.313c0,0.67-0.697,0.92-2.925,1.239
			c-2.065,0.304-3.571,1.177-3.571,3.344c0,1.905,1.516,3.063,3.254,3.063c1.813,0,2.774-0.801,3.445-1.923v1.646h1.098v-6.683
			c0-2.525-1.811-3.04-3.479-3.04c-2.201,0-3.61,0.688-3.61,0.688L40.84,60.732z"/>
		<path fill="#717071" d="M9.548,68.772h2.083v-5.585c0-1.395,0.898-2.491,2.291-2.491c1.232,0,1.814,0.643,1.849,2.128v5.948h2.089
			v-6.504c0-2.12-1.302-3.219-3.35-3.219c-1.246,0-2.207,0.423-2.844,1.146h-0.035v-4.501H9.548V68.772z"/>
		<polygon fill="#717071" points="20.011,60.952 25.135,60.952 19.895,67.307 19.895,68.772 28.232,68.772 28.232,67.125 
			22.705,67.125 27.953,60.769 27.953,59.306 20.011,59.306 		"/>
		<path fill="#717071" d="M49.82,68.772h1.148v-5.515c0.035-1.848,1.134-3.237,2.963-3.237c1.87,0,2.404,1.229,2.404,2.854v5.897
			h1.15v-6.076c0-2.256-0.805-3.646-3.461-3.646c-1.336,0-2.601,0.771-3.021,1.902h-0.035v-1.627H49.82V68.772z"/>
		<polygon fill="#717071" points="59.264,68.772 60.421,68.772 60.421,65.181 62.285,63.626 66.025,68.772 67.472,68.772 
			63.164,62.823 67.191,59.325 65.662,59.325 60.421,63.903 60.421,55.696 59.264,55.696 		"/>
		<polygon fill="#717071" points="131.877,44.432 127.936,44.432 129.373,31.85 133.268,31.85 		"/>
		<path fill="#717071" d="M133.875,25.336h4.084v6.514h3.324l1.764,9.029V25.336h4.084v6.514h3.439l2.277,9.108V25.336h4.237v28.46
			h-4.237v-9.154h-3.436l-2.281-9.166v18.32h-4.084v-9.154h-3.318l-1.756-8.905l-0.014,6.082c0,3.644-0.898,9.134-3.846,11.979
			h-4.314l0.289-0.333c2.473-3.179,3.785-6.942,3.785-10.975V25.336H133.875z"/>
		<polygon fill="#717071" points="99.994,44.183 98.615,40.261 98.615,53.796 94.457,53.796 94.457,39.853 91.545,49.197 
			88.125,49.197 93.195,32.419 88.964,32.419 88.964,29.606 94.457,29.606 94.457,25.321 98.615,25.321 98.615,29.606 
			101.566,29.606 101.566,32.419 99.21,32.419 103.539,44.217 		"/>
		<path fill="#717071" d="M104.73,36.536c0-2.241,0.494-3.131,2.223-3.131h9.037c1.824,0,2.305,0.985,2.305,2.778v14.928h1.873
			v2.686h-3.666c-1.717,0-2.453-0.597-2.453-2.66l-0.006-15.222l-5.184-0.014v9.646c0,2.468-0.512,6.157-2.25,8.251h-4.182
			l0.174-0.263c1.35-2.205,2.127-4.798,2.127-7.394v-2.128v-7.479L104.73,36.536L104.73,36.536z"/>
		<polygon fill="#717071" points="108.42,25.321 112.894,25.336 113.49,28.015 120.197,28.015 120.197,30.829 102.639,30.829 
			102.639,28.015 108.98,28.015 		"/>
		<path fill="#717071" d="M184.131,34.199l-0.006,3.785h7.771l0.01-3.785H184.131L184.131,34.199z M184.131,28.323L184.131,28.323
			v3.287h7.789l0.014-3.287H184.131L184.131,28.323z M191.396,25.784L191.396,25.784h2.719c1.43,0,1.889,0.803,1.889,2.242v12.606
			c0,0-5.369,0.013-6.357,0l2.125,4.27l1.127-2.631h3.863l-2.813,6.999l2.23,4.521h-4.152l-6.805-13.16h-1.097l-0.006,10.624h3.683
			v2.539h-3.175h-2.368c-1.814,0-2.242-0.886-2.242-2.415v-23.4c0-1.7,0.717-2.193,2.018-2.193L191.396,25.784z"/>
		<path fill="#717071" d="M178.711,40.052v2.595h-4.797l-0.004,8.947l4.078-0.031v2.233h-3.58h-2.207
			c-1.422,0-2.404-0.88-2.404-2.334v-8.815h-3.188v-2.595h3.188V36.32h-2.939v-0.946h-1.592l3.162-10.036h3.762l-0.912,2.75h7.507
			v2.591h-8.302l-0.938,3.049h9.168v2.594h-4.797v3.732L178.711,40.052L178.711,40.052z"/>
		<polygon fill="#717071" points="207.908,53.758 207.908,43.757 203.785,43.757 211.426,33.032 216.137,33.032 212.148,38.635 
			212.148,53.758 		"/>
		<rect x="217.691" y="26.305" fill="#717071" width="15.938" height="3.14"/>
		<path fill="#717071" d="M234.748,37.138h-3.494v13.755c0,1.272-0.449,2.903-2.582,2.903h-2.029h-5.231v-2.821l5.272,0.007
			l-0.014-13.844h-10.238v-2.922h18.316V37.138z"/>
		<polygon fill="#717071" points="208.152,35.227 203.441,35.227 210.264,25.644 214.979,25.644 		"/>
	</g>
</g>
</svg>
